<svg version="1.1" viewBox="0.0 0.0 960.0 720.0" fill="none" stroke="none" stroke-linecap="square" stroke-miterlimit="10" xmlns:xlink="http://www.w3.org/1999/xlink" xmlns="http://www.w3.org/2000/svg"><clipPath id="p.0"><path d="m0 0l960.0 0l0 720.0l-960.0 0l0 -720.0z" clip-rule="nonzero"/></clipPath><g clip-path="url(#p.0)"><path fill="#000000" fill-opacity="0.0" d="m0 0l960.0 0l0 720.0l-960.0 0z" fill-rule="evenodd"/><path fill="#000000" fill-opacity="0.0" d="m377.33072 183.77953l113.76376 0l0 46.04724l-113.76376 0z" fill-rule="evenodd"/><path stroke="#000000" stroke-width="3.0" stroke-linejoin="round" stroke-linecap="butt" d="m377.33072 183.77953l113.76376 0l0 46.04724l-113.76376 0z" fill-rule="evenodd"/><path fill="#000000" d="m389.5997 210.69952l0 -13.359375l9.015625 0l0 1.578125l-7.25 0l0 4.140625l6.265625 0l0 1.578125l-6.265625 0l0 6.0625l-1.765625 0zm11.099091 -11.46875l0 -1.890625l1.640625 0l0 1.890625l-1.640625 0zm0 11.46875l0 -9.671875l1.640625 0l0 9.671875l-1.640625 0zm4.1448364 0l0 -9.671875l1.46875 0l0 1.375q1.0625 -1.59375 3.078125 -1.59375q0.875 0 1.609375 0.3125q0.734375 0.3125 1.09375 0.828125q0.375 0.5 0.515625 1.203125q0.09375 0.453125 0.09375 1.59375l0 5.953125l-1.640625 0l0 -5.890625q0 -1.0 -0.203125 -1.484375q-0.1875 -0.5 -0.671875 -0.796875q-0.484375 -0.296875 -1.140625 -0.296875q-1.046875 0 -1.8125 0.671875q-0.75 0.65625 -0.75 2.515625l0 5.28125l-1.640625 0zm16.688202 -1.1875q-0.921875 0.765625 -1.765625 1.09375q-0.828125 0.3125 -1.796875 0.3125q-1.59375 0 -2.453125 -0.78125q-0.859375 -0.78125 -0.859375 -1.984375q0 -0.71875 0.328125 -1.296875q0.328125 -0.59375 0.84375 -0.9375q0.53125 -0.359375 1.1875 -0.546875q0.46875 -0.125 1.453125 -0.25q1.984375 -0.234375 2.921875 -0.5625q0.015625 -0.34375 0.015625 -0.421875q0 -1.0 -0.46875 -1.421875q-0.625 -0.546875 -1.875 -0.546875q-1.15625 0 -1.703125 0.40625q-0.546875 0.40625 -0.8125 1.421875l-1.609375 -0.21875q0.21875 -1.015625 0.71875 -1.640625q0.5 -0.640625 1.453125 -0.984375q0.953125 -0.34375 2.1875 -0.34375q1.25 0 2.015625 0.296875q0.78125 0.28125 1.140625 0.734375q0.375 0.4375 0.515625 1.109375q0.078125 0.421875 0.078125 1.515625l0 2.1875q0 2.28125 0.109375 2.890625q0.109375 0.59375 0.40625 1.15625l-1.703125 0q-0.265625 -0.515625 -0.328125 -1.1875zm-0.140625 -3.671875q-0.890625 0.375 -2.671875 0.625q-1.015625 0.140625 -1.4375 0.328125q-0.421875 0.1875 -0.65625 0.53125q-0.21875 0.34375 -0.21875 0.78125q0 0.65625 0.5 1.09375q0.5 0.4375 1.453125 0.4375q0.9375 0 1.671875 -0.40625q0.75 -0.421875 1.09375 -1.140625q0.265625 -0.5625 0.265625 -1.640625l0 -0.609375zm4.1569824 4.859375l0 -13.359375l1.640625 0l0 13.359375l-1.640625 0zm9.0625 0.796875l1.59375 0.234375q0.109375 0.75 0.5625 1.078125q0.609375 0.453125 1.671875 0.453125q1.140625 0 1.75 -0.453125q0.625 -0.453125 0.84375 -1.265625q0.125 -0.5 0.109375 -2.109375q-1.0625 1.265625 -2.671875 1.265625q-2.0 0 -3.09375 -1.4375q-1.09375 -1.4375 -1.09375 -3.453125q0 -1.390625 0.5 -2.5625q0.515625 -1.171875 1.453125 -1.796875q0.953125 -0.640625 2.25 -0.640625q1.703125 0 2.8125 1.375l0 -1.15625l1.515625 0l0 8.359375q0 2.265625 -0.46875 3.203125q-0.453125 0.9375 -1.453125 1.484375q-0.984375 0.546875 -2.453125 0.546875q-1.71875 0 -2.796875 -0.78125q-1.0625 -0.765625 -1.03125 -2.34375zm1.359375 -5.8125q0 1.90625 0.75 2.78125q0.765625 0.875 1.90625 0.875q1.125 0 1.890625 -0.859375q0.765625 -0.875 0.765625 -2.734375q0 -1.78125 -0.796875 -2.671875q-0.78125 -0.90625 -1.890625 -0.90625q-1.09375 0 -1.859375 0.890625q-0.765625 0.875 -0.765625 2.625zm9.313202 5.015625l0 -9.671875l1.46875 0l0 1.46875q0.5625 -1.03125 1.03125 -1.359375q0.484375 -0.328125 1.0625 -0.328125q0.828125 0 1.6875 0.53125l-0.5625 1.515625q-0.609375 -0.359375 -1.203125 -0.359375q-0.546875 0 -0.96875 0.328125q-0.421875 0.328125 -0.609375 0.890625q-0.28125 0.875 -0.28125 1.921875l0 5.0625l-1.625 0zm6.228302 -11.46875l0 -1.890625l1.640625 0l0 1.890625l-1.640625 0zm0 11.46875l0 -9.671875l1.640625 0l0 9.671875l-1.640625 0zm10.410461 0l0 -1.21875q-0.90625 1.4375 -2.703125 1.4375q-1.15625 0 -2.125 -0.640625q-0.96875 -0.640625 -1.5 -1.78125q-0.53125 -1.140625 -0.53125 -2.625q0 -1.453125 0.484375 -2.625q0.484375 -1.1875 1.4375 -1.8125q0.96875 -0.625 2.171875 -0.625q0.875 0 1.546875 0.375q0.6875 0.359375 1.109375 0.953125l0 -4.796875l1.640625 0l0 13.359375l-1.53125 0zm-5.171875 -4.828125q0 1.859375 0.78125 2.78125q0.78125 0.921875 1.84375 0.921875q1.078125 0 1.828125 -0.875q0.75 -0.890625 0.75 -2.6875q0 -1.984375 -0.765625 -2.90625q-0.765625 -0.9375 -1.890625 -0.9375q-1.078125 0 -1.8125 0.890625q-0.734375 0.890625 -0.734375 2.8125zm17.527771 1.546875q0 -0.328125 0 -0.5q0 -0.96875 0.265625 -1.671875q0.203125 -0.515625 0.640625 -1.0625q0.328125 -0.390625 1.171875 -1.140625q0.859375 -0.75 1.109375 -1.1875q0.265625 -0.453125 0.265625 -0.984375q0 -0.953125 -0.75 -1.671875q-0.734375 -0.734375 -1.828125 -0.734375q-1.046875 0 -1.75 0.65625q-0.703125 0.65625 -0.921875 2.046875l-1.6875 -0.203125q0.234375 -1.859375 1.359375 -2.84375q1.125 -1.0 2.96875 -1.0q1.96875 0 3.125 1.0625q1.171875 1.0625 1.171875 2.578125q0 0.875 -0.40625 1.609375q-0.40625 0.734375 -1.609375 1.796875q-0.796875 0.703125 -1.046875 1.046875q-0.25 0.34375 -0.375 0.78125q-0.109375 0.4375 -0.125 1.421875l-1.578125 0zm-0.09375 3.28125l0 -1.875l1.859375 0l0 1.875l-1.859375 0z" fill-rule="nonzero"/><path fill="#000000" fill-opacity="0.0" d="m185.79527 49.454067l125.92125 0l0 30.70866l-125.92125 0z" fill-rule="evenodd"/><path fill="#000000" d="m234.1233 77.170944l1.59375 0.234375q0.109375 0.75 0.5625 1.078125q0.609375 0.453125 1.671875 0.453125q1.140625 0 1.75 -0.453125q0.625 -0.453125 0.84375 -1.265625q0.125 -0.5 0.109375 -2.109375q-1.0625 1.265625 -2.671875 1.265625q-2.0 0 -3.09375 -1.4375q-1.09375 -1.4375 -1.09375 -3.453125q0 -1.390625 0.5 -2.5625q0.515625 -1.171875 1.453125 -1.796875q0.953125 -0.640625 2.25 -0.640625q1.703125 0 2.8125 1.375l0 -1.15625l1.515625 0l0 8.359375q0 2.265625 -0.46875 3.203125q-0.453125 0.9375 -1.453125 1.484375q-0.984375 0.546875 -2.453125 0.546875q-1.71875 0 -2.796875 -0.78125q-1.0625 -0.765625 -1.03125 -2.34375zm1.359375 -5.8125q0 1.90625 0.75 2.78125q0.765625 0.875 1.90625 0.875q1.125 0 1.890625 -0.859375q0.765625 -0.875 0.765625 -2.734375q0 -1.78125 -0.796875 -2.671875q-0.78125 -0.90625 -1.890625 -0.90625q-1.09375 0 -1.859375 0.890625q-0.765625 0.875 -0.765625 2.625zm9.313217 5.015625l0 -9.671875l1.46875 0l0 1.46875q0.5625 -1.03125 1.03125 -1.359375q0.484375 -0.328125 1.0625 -0.328125q0.828125 0 1.6875 0.53125l-0.5625 1.515625q-0.609375 -0.359375 -1.203125 -0.359375q-0.546875 0 -0.96875 0.328125q-0.421875 0.328125 -0.609375 0.890625q-0.28125 0.875 -0.28125 1.921875l0 5.0625l-1.625 0zm6.228302 -11.46875l0 -1.8906288l1.640625 0l0 1.8906288l-1.640625 0zm0 11.46875l0 -9.671875l1.640625 0l0 9.671875l-1.640625 0zm10.410461 0l0 -1.21875q-0.90625 1.4375 -2.703125 1.4375q-1.15625 0 -2.125 -0.640625q-0.96876526 -0.640625 -1.5000153 -1.78125q-0.53125 -1.140625 -0.53125 -2.625q0 -1.453125 0.484375 -2.625q0.484375 -1.1875 1.4375153 -1.8125q0.96875 -0.625 2.171875 -0.625q0.875 0 1.546875 0.375q0.6875 0.359375 1.109375 0.953125l0 -4.796879l1.640625 0l0 13.359379l-1.53125 0zm-5.171875 -4.828125q0 1.859375 0.78125 2.78125q0.78125 0.921875 1.84375 0.921875q1.078125 0 1.828125 -0.875q0.75 -0.890625 0.75 -2.6875q0 -1.984375 -0.765625 -2.90625q-0.765625 -0.9375 -1.890625 -0.9375q-1.078125 0 -1.8125 0.890625q-0.734375 0.890625 -0.734375 2.8125z" fill-rule="nonzero"/><path fill="#000000" fill-opacity="0.0" d="m523.3438 170.87927l113.763794 0l0 26.929123l-113.763794 0z" fill-rule="evenodd"/><path fill="#000000" d="m537.54694 197.79927l0 -5.65625l-5.15625 -7.703125l2.15625 0l2.640625 4.03125q0.71875 1.125 1.34375 2.265625q0.609375 -1.046875 1.46875 -2.359375l2.578125 -3.9375l2.0625 0l-5.328125 7.703125l0 5.65625l-1.765625 0zm13.3862915 -3.109375l1.6875 0.203125q-0.40625 1.484375 -1.484375 2.3125q-1.078125 0.8125 -2.765625 0.8125q-2.125 0 -3.375 -1.296875q-1.234375 -1.3125 -1.234375 -3.671875q0 -2.453125 1.25 -3.796875q1.265625 -1.34375 3.265625 -1.34375q1.9375 0 3.15625 1.328125q1.234375 1.3125 1.234375 3.703125q0 0.15625 0 0.4375l-7.21875 0q0.09375 1.59375 0.90625 2.453125q0.8125 0.84375 2.015625 0.84375q0.90625 0 1.546875 -0.46875q0.640625 -0.484375 1.015625 -1.515625zm-5.390625 -2.65625l5.40625 0q-0.109375 -1.21875 -0.625 -1.828125q-0.78125 -0.953125 -2.03125 -0.953125q-1.125 0 -1.90625 0.765625q-0.765625 0.75 -0.84375 2.015625zm8.485107 2.875l1.625 -0.25q0.125 0.96875 0.75 1.5q0.625 0.515625 1.75 0.515625q1.125 0 1.671875 -0.453125q0.546875 -0.46875 0.546875 -1.09375q0 -0.546875 -0.484375 -0.875q-0.328125 -0.21875 -1.671875 -0.546875q-1.8125 -0.46875 -2.515625 -0.796875q-0.6875 -0.328125 -1.046875 -0.90625q-0.359375 -0.59375 -0.359375 -1.3125q0 -0.640625 0.296875 -1.1875q0.296875 -0.5625 0.8125 -0.921875q0.375 -0.28125 1.03125 -0.46875q0.671875 -0.203125 1.421875 -0.203125q1.140625 0 2.0 0.328125q0.859375 0.328125 1.265625 0.890625q0.421875 0.5625 0.578125 1.5l-1.609375 0.21875q-0.109375 -0.75 -0.640625 -1.171875q-0.515625 -0.421875 -1.46875 -0.421875q-1.140625 0 -1.625 0.375q-0.46875 0.375 -0.46875 0.875q0 0.3125 0.1875 0.578125q0.203125 0.265625 0.640625 0.4375q0.234375 0.09375 1.4375 0.421875q1.75 0.453125 2.4375 0.75q0.6875 0.296875 1.078125 0.859375q0.390625 0.5625 0.390625 1.40625q0 0.828125 -0.484375 1.546875q-0.46875 0.71875 -1.375 1.125q-0.90625 0.390625 -2.046875 0.390625q-1.875 0 -2.875 -0.78125q-0.984375 -0.78125 -1.25 -2.328125z" fill-rule="nonzero"/><path fill="#000000" fill-opacity="0.0" d="m680.04724 183.95276l99.02362 0l0 46.04724l-99.02362 0z" fill-rule="evenodd"/><path fill="#000000" d="m705.0959 210.87276l-2.96875 -9.671875l1.703125 0l1.53125 5.578125l0.578125 2.078125q0.046875 -0.15625 0.5 -2.0l1.546875 -5.65625l1.6875 0l1.4375 5.609375l0.484375 1.84375l0.5625 -1.859375l1.65625 -5.59375l1.59375 0l-3.03125 9.671875l-1.703125 0l-1.53125 -5.796875l-0.375 -1.640625l-1.953125 7.4375l-1.71875 0zm11.691711 -11.46875l0 -1.890625l1.640625 0l0 1.890625l-1.640625 0zm0 11.46875l0 -9.671875l1.640625 0l0 9.671875l-1.640625 0zm4.1447754 0l0 -9.671875l1.46875 0l0 1.375q1.0625 -1.59375 3.078125 -1.59375q0.875 0 1.609375 0.3125q0.734375 0.3125 1.09375 0.828125q0.375 0.5 0.515625 1.203125q0.09375 0.453125 0.09375 1.59375l0 5.953125l-1.640625 0l0 -5.890625q0 -1.0 -0.203125 -1.484375q-0.1875 -0.5 -0.671875 -0.796875q-0.484375 -0.296875 -1.140625 -0.296875q-1.046875 0 -1.8125 0.671875q-0.75 0.65625 -0.75 2.515625l0 5.28125l-1.640625 0zm10.375732 0l0 -9.671875l1.46875 0l0 1.375q1.0625 -1.59375 3.078125 -1.59375q0.875 0 1.609375 0.3125q0.734375 0.3125 1.09375 0.828125q0.375 0.5 0.515625 1.203125q0.09375 0.453125 0.09375 1.59375l0 5.953125l-1.640625 0l0 -5.890625q0 -1.0 -0.203125 -1.484375q-0.1875 -0.5 -0.671875 -0.796875q-0.484375 -0.296875 -1.140625 -0.296875q-1.046875 0 -1.8125 0.671875q-0.75 0.65625 -0.75 2.515625l0 5.28125l-1.640625 0zm17.000732 -3.109375l1.6875 0.203125q-0.40625 1.484375 -1.484375 2.3125q-1.078125 0.8125 -2.765625 0.8125q-2.125 0 -3.375 -1.296875q-1.234375 -1.3125 -1.234375 -3.671875q0 -2.453125 1.25 -3.796875q1.265625 -1.34375 3.265625 -1.34375q1.9375 0 3.15625 1.328125q1.234375 1.3125 1.234375 3.703125q0 0.15625 0 0.4375l-7.21875 0q0.09375 1.59375 0.90625 2.453125q0.8125 0.84375 2.015625 0.84375q0.90625 0 1.546875 -0.46875q0.640625 -0.484375 1.015625 -1.515625zm-5.390625 -2.65625l5.40625 0q-0.109375 -1.21875 -0.625 -1.828125q-0.78125 -0.953125 -2.03125 -0.953125q-1.125 0 -1.90625 0.765625q-0.765625 0.75 -0.84375 2.015625zm9.125732 5.765625l0 -9.671875l1.46875 0l0 1.46875q0.5625 -1.03125 1.03125 -1.359375q0.484375 -0.328125 1.0625 -0.328125q0.828125 0 1.6875 0.53125l-0.5625 1.515625q-0.609375 -0.359375 -1.203125 -0.359375q-0.546875 0 -0.96875 0.328125q-0.421875 0.328125 -0.609375 0.890625q-0.28125 0.875 -0.28125 1.921875l0 5.0625l-1.625 0z" fill-rule="nonzero"/><path fill="#000000" fill-opacity="0.0" d="m242.49606 452.0735l113.763794 0l0 46.04724l-113.763794 0z" fill-rule="evenodd"/><path stroke="#000000" stroke-width="3.0" stroke-linejoin="round" stroke-linecap="butt" d="m242.49606 452.0735l113.763794 0l0 46.04724l-113.763794 0z" fill-rule="evenodd"/><path fill="#000000" d="m257.7858 479.79037l1.59375 0.234375q0.109375 0.75 0.5625 1.078125q0.609375 0.453125 1.671875 0.453125q1.140625 0 1.75 -0.453125q0.625 -0.453125 0.84375 -1.265625q0.125 -0.5 0.109375 -2.109375q-1.0625 1.265625 -2.671875 1.265625q-2.0 0 -3.09375 -1.4375q-1.09375 -1.4375 -1.09375 -3.453125q0 -1.390625 0.5 -2.5625q0.515625 -1.171875 1.453125 -1.796875q0.953125 -0.640625 2.25 -0.640625q1.703125 0 2.8125 1.375l0 -1.15625l1.515625 0l0 8.359375q0 2.265625 -0.46875 3.203125q-0.453125 0.9375 -1.453125 1.484375q-0.984375 0.546875 -2.453125 0.546875q-1.71875 0 -2.796875 -0.78125q-1.0625 -0.765625 -1.03125 -2.34375zm1.359375 -5.8125q0 1.90625 0.75 2.78125q0.765625 0.875 1.90625 0.875q1.125 0 1.890625 -0.859375q0.765625 -0.875 0.765625 -2.734375q0 -1.78125 -0.796875 -2.671875q-0.78125 -0.90625 -1.890625 -0.90625q-1.09375 0 -1.859375 0.890625q-0.765625 0.875 -0.765625 2.625zm15.953857 1.90625l1.6875 0.203125q-0.40625 1.484375 -1.484375 2.3125q-1.078125 0.8125 -2.765625 0.8125q-2.125 0 -3.375 -1.296875q-1.234375 -1.3125 -1.234375 -3.671875q0 -2.453125 1.25 -3.796875q1.265625 -1.34375 3.265625 -1.34375q1.9375 0 3.15625 1.328125q1.234375 1.3125 1.234375 3.703125q0 0.15625 0 0.4375l-7.21875 0q0.09375 1.59375 0.90625 2.453125q0.8125 0.84375 2.015625 0.84375q0.90625 0 1.546875 -0.46875q0.640625 -0.484375 1.015625 -1.515625zm-5.390625 -2.65625l5.40625 0q-0.109375 -1.21875 -0.625 -1.828125q-0.78125 -0.953125 -2.03125 -0.953125q-1.125 0 -1.90625 0.765625q-0.765625 0.75 -0.84375 2.015625zm12.719452 4.296875l0.234375 1.453125q-0.6875 0.140625 -1.234375 0.140625q-0.890625 0 -1.390625 -0.28125q-0.484375 -0.28125 -0.6875 -0.734375q-0.203125 -0.46875 -0.203125 -1.9375l0 -5.578125l-1.203125 0l0 -1.265625l1.203125 0l0 -2.390625l1.625 -0.984375l0 3.375l1.65625 0l0 1.265625l-1.65625 0l0 5.671875q0 0.6875 0.078125 0.890625q0.09375 0.203125 0.28125 0.328125q0.203125 0.109375 0.578125 0.109375q0.265625 0 0.71875 -0.0625zm4.136444 1.46875l-3.53125 -13.359375l1.8125 0l2.03125 8.765625q0.328125 1.375 0.5625 2.71875q0.5 -2.140625 0.59375 -2.46875l2.546875 -9.015625l2.125 0l1.921875 6.765625q0.71875 2.515625 1.03125 4.71875q0.265625 -1.265625 0.671875 -2.890625l2.09375 -8.59375l1.78125 0l-3.671875 13.359375l-1.703125 0l-2.8125 -10.171875q-0.359375 -1.28125 -0.421875 -1.5625q-0.203125 0.90625 -0.390625 1.5625l-2.828125 10.171875l-1.8125 0zm15.077393 -11.46875l0 -1.890625l1.640625 0l0 1.890625l-1.640625 0zm0 11.46875l0 -9.671875l1.640625 0l0 9.671875l-1.640625 0zm4.1448364 0l0 -9.671875l1.46875 0l0 1.375q1.0625 -1.59375 3.078125 -1.59375q0.875 0 1.609375 0.3125q0.734375 0.3125 1.09375 0.828125q0.375 0.5 0.515625 1.203125q0.09375 0.453125 0.09375 1.59375l0 5.953125l-1.640625 0l0 -5.890625q0 -1.0 -0.203125 -1.484375q-0.1875 -0.5 -0.671875 -0.796875q-0.484375 -0.296875 -1.140625 -0.296875q-1.046875 0 -1.8125 0.671875q-0.75 0.65625 -0.75 2.515625l0 5.28125l-1.640625 0zm10.375702 0l0 -9.671875l1.46875 0l0 1.375q1.0625 -1.59375 3.078125 -1.59375q0.875 0 1.609375 0.3125q0.734375 0.3125 1.09375 0.828125q0.375 0.5 0.515625 1.203125q0.09375 0.453125 0.09375 1.59375l0 5.953125l-1.640625 0l0 -5.890625q0 -1.0 -0.203125 -1.484375q-0.1875 -0.5 -0.671875 -0.796875q-0.484375 -0.296875 -1.140625 -0.296875q-1.046875 0 -1.8125 0.671875q-0.75 0.65625 -0.75 2.515625l0 5.28125l-1.640625 0zm17.000732 -3.109375l1.6875 0.203125q-0.40625 1.484375 -1.484375 2.3125q-1.078125 0.8125 -2.765625 0.8125q-2.125 0 -3.375 -1.296875q-1.234375 -1.3125 -1.234375 -3.671875q0 -2.453125 1.25 -3.796875q1.265625 -1.34375 3.265625 -1.34375q1.9375 0 3.15625 1.328125q1.234375 1.3125 1.234375 3.703125q0 0.15625 0 0.4375l-7.21875 0q0.09375 1.59375 0.90625 2.453125q0.8125 0.84375 2.015625 0.84375q0.90625 0 1.546875 -0.46875q0.640625 -0.484375 1.015625 -1.515625zm-5.390625 -2.65625l5.40625 0q-0.109375 -1.21875 -0.625 -1.828125q-0.78125 -0.953125 -2.03125 -0.953125q-1.125 0 -1.90625 0.765625q-0.765625 0.75 -0.84375 2.015625zm9.125702 5.765625l0 -9.671875l1.46875 0l0 1.46875q0.5625 -1.03125 1.03125 -1.359375q0.484375 -0.328125 1.0625 -0.328125q0.828125 0 1.6875 0.53125l-0.5625 1.515625q-0.609375 -0.359375 -1.203125 -0.359375q-0.546875 0 -0.96875 0.328125q-0.421875 0.328125 -0.609375 0.890625q-0.28125 0.875 -0.28125 1.921875l0 5.0625l-1.625 0z" fill-rule="nonzero"/><path fill="#000000" fill-opacity="0.0" d="m511.00525 452.0735l113.763794 0l0 46.04724l-113.763794 0z" fill-rule="evenodd"/><path stroke="#000000" stroke-width="3.0" stroke-linejoin="round" stroke-linecap="butt" d="m511.00525 452.0735l113.763794 0l0 46.04724l-113.763794 0z" fill-rule="evenodd"/><path fill="#000000" d="m526.295 479.79037l1.59375 0.234375q0.109375 0.75 0.5625 1.078125q0.609375 0.453125 1.671875 0.453125q1.140625 0 1.75 -0.453125q0.625 -0.453125 0.84375 -1.265625q0.125 -0.5 0.109375 -2.109375q-1.0625 1.265625 -2.671875 1.265625q-2.0 0 -3.09375 -1.4375q-1.09375 -1.4375 -1.09375 -3.453125q0 -1.390625 0.5 -2.5625q0.515625 -1.171875 1.453125 -1.796875q0.953125 -0.640625 2.25 -0.640625q1.703125 0 2.8125 1.375l0 -1.15625l1.515625 0l0 8.359375q0 2.265625 -0.46875 3.203125q-0.453125 0.9375 -1.453125 1.484375q-0.984375 0.546875 -2.453125 0.546875q-1.71875 0 -2.796875 -0.78125q-1.0625 -0.765625 -1.03125 -2.34375zm1.359375 -5.8125q0 1.90625 0.75 2.78125q0.765625 0.875 1.90625 0.875q1.125 0 1.890625 -0.859375q0.765625 -0.875 0.765625 -2.734375q0 -1.78125 -0.796875 -2.671875q-0.78125 -0.90625 -1.890625 -0.90625q-1.09375 0 -1.859375 0.890625q-0.765625 0.875 -0.765625 2.625zm15.953857 1.90625l1.6875 0.203125q-0.40625 1.484375 -1.484375 2.3125q-1.078125 0.8125 -2.765625 0.8125q-2.125 0 -3.375 -1.296875q-1.234375 -1.3125 -1.234375 -3.671875q0 -2.453125 1.25 -3.796875q1.265625 -1.34375 3.265625 -1.34375q1.9375 0 3.15625 1.328125q1.234375 1.3125 1.234375 3.703125q0 0.15625 0 0.4375l-7.21875 0q0.09375 1.59375 0.90625 2.453125q0.8125 0.84375 2.015625 0.84375q0.90625 0 1.546875 -0.46875q0.640625 -0.484375 1.015625 -1.515625zm-5.390625 -2.65625l5.40625 0q-0.109375 -1.21875 -0.625 -1.828125q-0.78125 -0.953125 -2.03125 -0.953125q-1.125 0 -1.90625 0.765625q-0.765625 0.75 -0.84375 2.015625zm12.719482 4.296875l0.234375 1.453125q-0.6875 0.140625 -1.234375 0.140625q-0.890625 0 -1.390625 -0.28125q-0.484375 -0.28125 -0.6875 -0.734375q-0.203125 -0.46875 -0.203125 -1.9375l0 -5.578125l-1.203125 0l0 -1.265625l1.203125 0l0 -2.390625l1.625 -0.984375l0 3.375l1.65625 0l0 1.265625l-1.65625 0l0 5.671875q0 0.6875 0.078125 0.890625q0.09375 0.203125 0.28125 0.328125q0.203125 0.109375 0.578125 0.109375q0.265625 0 0.71875 -0.0625zm4.1364136 1.46875l-3.53125 -13.359375l1.8125 0l2.03125 8.765625q0.328125 1.375 0.5625 2.71875q0.5 -2.140625 0.59375 -2.46875l2.546875 -9.015625l2.125 0l1.921875 6.765625q0.71875 2.515625 1.03125 4.71875q0.265625 -1.265625 0.671875 -2.890625l2.09375 -8.59375l1.78125 0l-3.671875 13.359375l-1.703125 0l-2.8125 -10.171875q-0.359375 -1.28125 -0.421875 -1.5625q-0.203125 0.90625 -0.390625 1.5625l-2.828125 10.171875l-1.8125 0zm15.077393 -11.46875l0 -1.890625l1.640625 0l0 1.890625l-1.640625 0zm0 11.46875l0 -9.671875l1.640625 0l0 9.671875l-1.640625 0zm4.1448364 0l0 -9.671875l1.46875 0l0 1.375q1.0625 -1.59375 3.078125 -1.59375q0.875 0 1.609375 0.3125q0.734375 0.3125 1.09375 0.828125q0.375 0.5 0.515625 1.203125q0.09375 0.453125 0.09375 1.59375l0 5.953125l-1.640625 0l0 -5.890625q0 -1.0 -0.203125 -1.484375q-0.1875 -0.5 -0.671875 -0.796875q-0.484375 -0.296875 -1.140625 -0.296875q-1.046875 0 -1.8125 0.671875q-0.75 0.65625 -0.75 2.515625l0 5.28125l-1.640625 0zm10.375732 0l0 -9.671875l1.46875 0l0 1.375q1.0625 -1.59375 3.078125 -1.59375q0.875 0 1.609375 0.3125q0.734375 0.3125 1.09375 0.828125q0.375 0.5 0.515625 1.203125q0.09375 0.453125 0.09375 1.59375l0 5.953125l-1.640625 0l0 -5.890625q0 -1.0 -0.203125 -1.484375q-0.1875 -0.5 -0.671875 -0.796875q-0.484375 -0.296875 -1.140625 -0.296875q-1.046875 0 -1.8125 0.671875q-0.75 0.65625 -0.75 2.515625l0 5.28125l-1.640625 0zm17.000671 -3.109375l1.6875 0.203125q-0.40625 1.484375 -1.484375 2.3125q-1.078125 0.8125 -2.765625 0.8125q-2.125 0 -3.375 -1.296875q-1.234375 -1.3125 -1.234375 -3.671875q0 -2.453125 1.25 -3.796875q1.265625 -1.34375 3.265625 -1.34375q1.9375 0 3.15625 1.328125q1.234375 1.3125 1.234375 3.703125q0 0.15625 0 0.4375l-7.21875 0q0.09375 1.59375 0.90625 2.453125q0.8125 0.84375 2.015625 0.84375q0.90625 0 1.546875 -0.46875q0.640625 -0.484375 1.015625 -1.515625zm-5.390625 -2.65625l5.40625 0q-0.109375 -1.21875 -0.625 -1.828125q-0.78125 -0.953125 -2.03125 -0.953125q-1.125 0 -1.90625 0.765625q-0.765625 0.75 -0.84375 2.015625zm9.125732 5.765625l0 -9.671875l1.46875 0l0 1.46875q0.5625 -1.03125 1.03125 -1.359375q0.484375 -0.328125 1.0625 -0.328125q0.828125 0 1.6875 0.53125l-0.5625 1.515625q-0.609375 -0.359375 -1.203125 -0.359375q-0.546875 0 -0.96875 0.328125q-0.421875 0.328125 -0.609375 0.890625q-0.28125 0.875 -0.28125 1.921875l0 5.0625l-1.625 0z" fill-rule="nonzero"/><path fill="#000000" fill-opacity="0.0" d="m376.75067 452.0735l113.76376 0l0 46.04724l-113.76376 0z" fill-rule="evenodd"/><path stroke="#000000" stroke-width="3.0" stroke-linejoin="round" stroke-linecap="butt" d="m376.75067 452.0735l113.76376 0l0 46.04724l-113.76376 0z" fill-rule="evenodd"/><path fill="#000000" d="m392.0404 479.79037l1.59375 0.234375q0.109375 0.75 0.5625 1.078125q0.609375 0.453125 1.671875 0.453125q1.140625 0 1.75 -0.453125q0.625 -0.453125 0.84375 -1.265625q0.125 -0.5 0.109375 -2.109375q-1.0625 1.265625 -2.671875 1.265625q-2.0 0 -3.09375 -1.4375q-1.09375 -1.4375 -1.09375 -3.453125q0 -1.390625 0.5 -2.5625q0.515625 -1.171875 1.453125 -1.796875q0.953125 -0.640625 2.25 -0.640625q1.703125 0 2.8125 1.375l0 -1.15625l1.515625 0l0 8.359375q0 2.265625 -0.46875 3.203125q-0.453125 0.9375 -1.453125 1.484375q-0.984375 0.546875 -2.453125 0.546875q-1.71875 0 -2.796875 -0.78125q-1.0625 -0.765625 -1.03125 -2.34375zm1.359375 -5.8125q0 1.90625 0.75 2.78125q0.765625 0.875 1.90625 0.875q1.125 0 1.890625 -0.859375q0.765625 -0.875 0.765625 -2.734375q0 -1.78125 -0.796875 -2.671875q-0.78125 -0.90625 -1.890625 -0.90625q-1.09375 0 -1.859375 0.890625q-0.765625 0.875 -0.765625 2.625zm15.953827 1.90625l1.6875 0.203125q-0.40625 1.484375 -1.484375 2.3125q-1.078125 0.8125 -2.765625 0.8125q-2.125 0 -3.375 -1.296875q-1.234375 -1.3125 -1.234375 -3.671875q0 -2.453125 1.25 -3.796875q1.265625 -1.34375 3.265625 -1.34375q1.9375 0 3.15625 1.328125q1.234375 1.3125 1.234375 3.703125q0 0.15625 0 0.4375l-7.21875 0q0.09375 1.59375 0.90625 2.453125q0.8125 0.84375 2.015625 0.84375q0.90625 0 1.546875 -0.46875q0.640625 -0.484375 1.015625 -1.515625zm-5.390625 -2.65625l5.40625 0q-0.109375 -1.21875 -0.625 -1.828125q-0.78125 -0.953125 -2.03125 -0.953125q-1.125 0 -1.90625 0.765625q-0.765625 0.75 -0.84375 2.015625zm12.719482 4.296875l0.234375 1.453125q-0.6875 0.140625 -1.234375 0.140625q-0.890625 0 -1.390625 -0.28125q-0.484375 -0.28125 -0.6875 -0.734375q-0.203125 -0.46875 -0.203125 -1.9375l0 -5.578125l-1.203125 0l0 -1.265625l1.203125 0l0 -2.390625l1.625 -0.984375l0 3.375l1.65625 0l0 1.265625l-1.65625 0l0 5.671875q0 0.6875 0.078125 0.890625q0.09375 0.203125 0.28125 0.328125q0.203125 0.109375 0.578125 0.109375q0.265625 0 0.71875 -0.0625zm4.1364136 1.46875l-3.53125 -13.359375l1.8125 0l2.03125 8.765625q0.328125 1.375 0.5625 2.71875q0.5 -2.140625 0.59375 -2.46875l2.546875 -9.015625l2.125 0l1.921875 6.765625q0.71875 2.515625 1.03125 4.71875q0.265625 -1.265625 0.671875 -2.890625l2.09375 -8.59375l1.78125 0l-3.671875 13.359375l-1.703125 0l-2.8125 -10.171875q-0.359375 -1.28125 -0.421875 -1.5625q-0.203125 0.90625 -0.390625 1.5625l-2.828125 10.171875l-1.8125 0zm15.077423 -11.46875l0 -1.890625l1.640625 0l0 1.890625l-1.640625 0zm0 11.46875l0 -9.671875l1.640625 0l0 9.671875l-1.640625 0zm4.144806 0l0 -9.671875l1.46875 0l0 1.375q1.0625 -1.59375 3.078125 -1.59375q0.875 0 1.609375 0.3125q0.734375 0.3125 1.09375 0.828125q0.375 0.5 0.515625 1.203125q0.09375 0.453125 0.09375 1.59375l0 5.953125l-1.640625 0l0 -5.890625q0 -1.0 -0.203125 -1.484375q-0.1875 -0.5 -0.671875 -0.796875q-0.484375 -0.296875 -1.140625 -0.296875q-1.046875 0 -1.8125 0.671875q-0.75 0.65625 -0.75 2.515625l0 5.28125l-1.640625 0zm10.375732 0l0 -9.671875l1.46875 0l0 1.375q1.0625 -1.59375 3.078125 -1.59375q0.875 0 1.609375 0.3125q0.734375 0.3125 1.09375 0.828125q0.375 0.5 0.515625 1.203125q0.09375 0.453125 0.09375 1.59375l0 5.953125l-1.640625 0l0 -5.890625q0 -1.0 -0.203125 -1.484375q-0.1875 -0.5 -0.671875 -0.796875q-0.484375 -0.296875 -1.140625 -0.296875q-1.046875 0 -1.8125 0.671875q-0.75 0.65625 -0.75 2.515625l0 5.28125l-1.640625 0zm17.000702 -3.109375l1.6875 0.203125q-0.40625 1.484375 -1.484375 2.3125q-1.078125 0.8125 -2.765625 0.8125q-2.125 0 -3.375 -1.296875q-1.234375 -1.3125 -1.234375 -3.671875q0 -2.453125 1.25 -3.796875q1.265625 -1.34375 3.265625 -1.34375q1.9375 0 3.15625 1.328125q1.234375 1.3125 1.234375 3.703125q0 0.15625 0 0.4375l-7.21875 0q0.09375 1.59375 0.90625 2.453125q0.8125 0.84375 2.015625 0.84375q0.90625 0 1.546875 -0.46875q0.640625 -0.484375 1.015625 -1.515625zm-5.390625 -2.65625l5.40625 0q-0.109375 -1.21875 -0.625 -1.828125q-0.78125 -0.953125 -2.03125 -0.953125q-1.125 0 -1.90625 0.765625q-0.765625 0.75 -0.84375 2.015625zm9.125732 5.765625l0 -9.671875l1.46875 0l0 1.46875q0.5625 -1.03125 1.03125 -1.359375q0.484375 -0.328125 1.0625 -0.328125q0.828125 0 1.6875 0.53125l-0.5625 1.515625q-0.609375 -0.359375 -1.203125 -0.359375q-0.546875 0 -0.96875 0.328125q-0.421875 0.328125 -0.609375 0.890625q-0.28125 0.875 -0.28125 1.921875l0 5.0625l-1.625 0z" fill-rule="nonzero"/><path fill="#000000" fill-opacity="0.0" d="m157.03412 521.1102l117.25986 0l0 23.4646l-117.25986 0z" fill-rule="evenodd"/><path fill="#000000" d="m169.04974 548.0302l-2.96875 -9.671875l1.703125 0l1.53125 5.578125l0.578125 2.078125q0.046875 -0.15625 0.5 -2.0l1.546875 -5.65625l1.6875 0l1.4375 5.609375l0.484375 1.84375l0.5625 -1.859375l1.65625 -5.59375l1.59375 0l-3.03125 9.671875l-1.703125 0l-1.53125 -5.796875l-0.375 -1.640625l-1.953125 7.4375l-1.71875 0zm11.691696 -11.46875l0 -1.890625l1.640625 0l0 1.890625l-1.640625 0zm0 11.46875l0 -9.671875l1.640625 0l0 9.671875l-1.640625 0zm4.144821 0l0 -9.671875l1.46875 0l0 1.375q1.0625 -1.59375 3.078125 -1.59375q0.875 0 1.609375 0.3125q0.734375 0.3125 1.09375 0.828125q0.375 0.5 0.515625 1.203125q0.09375 0.453125 0.09375 1.59375l0 5.953125l-1.640625 0l0 -5.890625q0 -1.0 -0.203125 -1.484375q-0.1875 -0.5 -0.671875 -0.796875q-0.484375 -0.296875 -1.140625 -0.296875q-1.046875 0 -1.8125 0.671875q-0.75 0.65625 -0.75 2.515625l0 5.28125l-1.640625 0zm10.375717 0l0 -9.671875l1.46875 0l0 1.375q1.0625 -1.59375 3.078125 -1.59375q0.875 0 1.609375 0.3125q0.734375 0.3125 1.09375 0.828125q0.375 0.5 0.515625 1.203125q0.09375 0.453125 0.09375 1.59375l0 5.953125l-1.640625 0l0 -5.890625q0 -1.0 -0.203125 -1.484375q-0.1875 -0.5 -0.671875 -0.796875q-0.484375 -0.296875 -1.140625 -0.296875q-1.046875 0 -1.8125 0.671875q-0.75 0.65625 -0.75 2.515625l0 5.28125l-1.640625 0zm17.000717 -3.109375l1.6875 0.203125q-0.40625 1.484375 -1.484375 2.3125q-1.078125 0.8125 -2.765625 0.8125q-2.125 0 -3.375 -1.296875q-1.234375 -1.3125 -1.234375 -3.671875q0 -2.453125 1.25 -3.796875q1.265625 -1.34375 3.265625 -1.34375q1.9375 0 3.15625 1.328125q1.234375 1.3125 1.234375 3.703125q0 0.15625 0 0.4375l-7.21875 0q0.09375 1.59375 0.90625 2.453125q0.8125 0.84375 2.015625 0.84375q0.90625 0 1.546875 -0.46875q0.640625 -0.484375 1.015625 -1.515625zm-5.390625 -2.65625l5.40625 0q-0.109375 -1.21875 -0.625 -1.828125q-0.78125 -0.953125 -2.03125 -0.953125q-1.125 0 -1.90625 0.765625q-0.765625 0.75 -0.84375 2.015625zm9.125717 5.765625l0 -9.671875l1.46875 0l0 1.46875q0.5625 -1.03125 1.03125 -1.359375q0.484375 -0.328125 1.0625 -0.328125q0.828125 0 1.6875 0.53125l-0.5625 1.515625q-0.609375 -0.359375 -1.203125 -0.359375q-0.546875 0 -0.96875 0.328125q-0.421875 0.328125 -0.609375 0.890625q-0.28125 0.875 -0.28125 1.921875l0 5.0625l-1.625 0z" fill-rule="nonzero"/><path fill="#000000" fill-opacity="0.0" d="m237.96194 81.54068l0 81.6378" fill-rule="evenodd"/><path stroke="#000000" stroke-width="1.0" stroke-linejoin="round" stroke-linecap="butt" d="m237.96194 81.54068l0 81.6378" fill-rule="evenodd"/><path fill="#000000" fill-opacity="0.0" d="m260.91208 81.54068l0 81.6378" fill-rule="evenodd"/><path stroke="#000000" stroke-width="1.0" stroke-linejoin="round" stroke-linecap="butt" d="m260.91208 81.54068l0 81.6378" fill-rule="evenodd"/><path fill="#000000" fill-opacity="0.0" d="m287.21652 107.091866l-77.29132 0" fill-rule="evenodd"/><path stroke="#000000" stroke-width="1.0" stroke-linejoin="round" stroke-linecap="butt" d="m287.21652 107.091866l-77.29132 0" fill-rule="evenodd"/><path fill="#000000" fill-opacity="0.0" d="m287.21652 133.51443l-75.55904 0" fill-rule="evenodd"/><path stroke="#000000" stroke-width="1.0" stroke-linejoin="round" stroke-linecap="butt" d="m287.21652 133.51443l-75.55904 0" fill-rule="evenodd"/><path fill="#0000ff" d="m217.51099 87.24463l1.2283936 -1.2283859l6.38266 6.3826675l6.382675 -6.3826675l1.2283936 1.2283859l-6.382675 6.3826675l6.382675 6.3826675l-1.2283936 1.2283859l-6.382675 -6.3826675l-6.38266 6.3826675l-1.2283936 -1.2283859l6.382675 -6.3826675z" fill-rule="evenodd"/><path stroke="#0000ff" stroke-width="1.0" stroke-linejoin="round" stroke-linecap="butt" d="m217.51099 87.24463l1.2283936 -1.2283859l6.38266 6.3826675l6.382675 -6.3826675l1.2283936 1.2283859l-6.382675 6.3826675l6.382675 6.3826675l-1.2283936 1.2283859l-6.382675 -6.3826675l-6.38266 6.3826675l-1.2283936 -1.2283859l6.382675 -6.3826675z" fill-rule="evenodd"/><path fill="#000000" fill-opacity="0.0" d="m242.91733 120.30315l0 0c0 -3.8355484 2.9189606 -6.9448776 6.519684 -6.9448776l0 0c1.729126 0 3.387436 0.73168945 4.6101074 2.034111c1.2226868 1.302414 1.9095764 3.0688705 1.9095764 4.9107666l0 0c0 3.835556 -2.9189606 6.9448853 -6.519684 6.9448853l0 0c-3.6007233 0 -6.519684 -3.1093292 -6.519684 -6.9448853z" fill-rule="evenodd"/><path stroke="#ff0000" stroke-width="3.0" stroke-linejoin="round" stroke-linecap="butt" d="m242.91733 120.30315l0 0c0 -3.8355484 2.9189606 -6.9448776 6.519684 -6.9448776l0 0c1.729126 0 3.387436 0.73168945 4.6101074 2.034111c1.2226868 1.302414 1.9095764 3.0688705 1.9095764 4.9107666l0 0c0 3.835556 -2.9189606 6.9448853 -6.519684 6.9448853l0 0c-3.6007233 0 -6.519684 -3.1093292 -6.519684 -6.9448853z" fill-rule="evenodd"/><path fill="#000000" fill-opacity="0.0" d="m267.60236 149.32939l0 0c0 -3.8355408 2.9189758 -6.94487 6.519684 -6.94487l0 0c1.729126 0 3.3874512 0.73168945 4.6101074 2.0341034c1.2226868 1.302414 1.9095764 3.0688782 1.9095764 4.9107666l0 0c0 3.835556 -2.9189453 6.9448853 -6.519684 6.9448853l0 0c-3.600708 0 -6.519684 -3.1093292 -6.519684 -6.9448853z" fill-rule="evenodd"/><path stroke="#ff0000" stroke-width="3.0" stroke-linejoin="round" stroke-linecap="butt" d="m267.60236 149.32939l0 0c0 -3.8355408 2.9189758 -6.94487 6.519684 -6.94487l0 0c1.729126 0 3.3874512 0.73168945 4.6101074 2.0341034c1.2226868 1.302414 1.9095764 3.0688782 1.9095764 4.9107666l0 0c0 3.835556 -2.9189453 6.9448853 -6.519684 6.9448853l0 0c-3.600708 0 -6.519684 -3.1093292 -6.519684 -6.9448853z" fill-rule="evenodd"/><path fill="#0000ff" d="m216.88632 113.92179l1.2283783 -1.2283859l6.382675 6.382675l6.382675 -6.382675l1.2283783 1.2283859l-6.382675 6.3826675l6.382675 6.382675l-1.2283783 1.2283859l-6.382675 -6.382675l-6.382675 6.382675l-1.2283783 -1.2283859l6.382675 -6.382675z" fill-rule="evenodd"/><path stroke="#0000ff" stroke-width="1.0" stroke-linejoin="round" stroke-linecap="butt" d="m216.88632 113.92179l1.2283783 -1.2283859l6.382675 6.382675l6.382675 -6.382675l1.2283783 1.2283859l-6.382675 6.3826675l6.382675 6.382675l-1.2283783 1.2283859l-6.382675 -6.382675l-6.382675 6.382675l-1.2283783 -1.2283859l6.382675 -6.382675z" fill-rule="evenodd"/><path fill="#000000" fill-opacity="0.0" d="m217.97769 149.32939l0 0c0 -3.8355408 2.9189606 -6.94487 6.519684 -6.94487l0 0c1.729126 0 3.387436 0.73168945 4.6101074 2.0341034c1.2226868 1.302414 1.9095764 3.0688782 1.9095764 4.9107666l0 0c0 3.835556 -2.9189606 6.9448853 -6.519684 6.9448853l0 0c-3.6007233 0 -6.519684 -3.1093292 -6.519684 -6.9448853z" fill-rule="evenodd"/><path stroke="#ff0000" stroke-width="3.0" stroke-linejoin="round" stroke-linecap="butt" d="m217.97769 149.32939l0 0c0 -3.8355408 2.9189606 -6.94487 6.519684 -6.94487l0 0c1.729126 0 3.387436 0.73168945 4.6101074 2.0341034c1.2226868 1.302414 1.9095764 3.0688782 1.9095764 4.9107666l0 0c0 3.835556 -2.9189606 6.9448853 -6.519684 6.9448853l0 0c-3.6007233 0 -6.519684 -3.1093292 -6.519684 -6.9448853z" fill-rule="evenodd"/><path fill="#0000ff" d="m266.511 87.24463l1.2283936 -1.2283859l6.38266 6.3826675l6.3826904 -6.3826675l1.228363 1.2283859l-6.38266 6.3826675l6.38266 6.3826675l-1.228363 1.2283859l-6.3826904 -6.3826675l-6.38266 6.3826675l-1.2283936 -1.2283859l6.3826904 -6.3826675z" fill-rule="evenodd"/><path stroke="#0000ff" stroke-width="1.0" stroke-linejoin="round" stroke-linecap="butt" d="m266.511 87.24463l1.2283936 -1.2283859l6.38266 6.3826675l6.3826904 -6.3826675l1.228363 1.2283859l-6.38266 6.3826675l6.38266 6.3826675l-1.228363 1.2283859l-6.3826904 -6.3826675l-6.38266 6.3826675l-1.2283936 -1.2283859l6.3826904 -6.3826675z" fill-rule="evenodd"/><path fill="#000000" fill-opacity="0.0" d="m288.76642 309.55905l0 81.63779" fill-rule="evenodd"/><path stroke="#000000" stroke-width="1.0" stroke-linejoin="round" stroke-linecap="butt" d="m288.76642 309.55905l0 81.63779" fill-rule="evenodd"/><path fill="#000000" fill-opacity="0.0" d="m311.71652 309.55905l0 81.63779" fill-rule="evenodd"/><path stroke="#000000" stroke-width="1.0" stroke-linejoin="round" stroke-linecap="butt" d="m311.71652 309.55905l0 81.63779" fill-rule="evenodd"/><path fill="#000000" fill-opacity="0.0" d="m338.021 335.11023l-77.29135 0" fill-rule="evenodd"/><path stroke="#000000" stroke-width="1.0" stroke-linejoin="round" stroke-linecap="butt" d="m338.021 335.11023l-77.29135 0" fill-rule="evenodd"/><path fill="#000000" fill-opacity="0.0" d="m338.021 361.5328l-75.55905 0" fill-rule="evenodd"/><path stroke="#000000" stroke-width="1.0" stroke-linejoin="round" stroke-linecap="butt" d="m338.021 361.5328l-75.55905 0" fill-rule="evenodd"/><path fill="#0000ff" d="m268.31546 315.263l1.2283936 -1.2283936l6.38266 6.3826904l6.38266 -6.3826904l1.2283936 1.2283936l-6.38266 6.38266l6.38266 6.3826904l-1.2283936 1.228363l-6.38266 -6.38266l-6.38266 6.38266l-1.2283936 -1.228363l6.38266 -6.3826904z" fill-rule="evenodd"/><path stroke="#0000ff" stroke-width="1.0" stroke-linejoin="round" stroke-linecap="butt" d="m268.31546 315.263l1.2283936 -1.2283936l6.38266 6.3826904l6.38266 -6.3826904l1.2283936 1.2283936l-6.38266 6.38266l6.38266 6.3826904l-1.2283936 1.228363l-6.38266 -6.38266l-6.38266 6.38266l-1.2283936 -1.228363l6.38266 -6.3826904z" fill-rule="evenodd"/><path fill="#000000" fill-opacity="0.0" d="m293.72177 348.32153l0 0c0 -3.8355713 2.9189758 -6.9448853 6.519684 -6.9448853l0 0c1.7291565 0 3.3874512 0.73168945 4.610138 2.0340881c1.2226562 1.3024292 1.9095764 3.0688782 1.9095764 4.910797l0 0c0 3.8355408 -2.9189758 6.9448853 -6.5197144 6.9448853l0 0c-3.600708 0 -6.519684 -3.1093445 -6.519684 -6.9448853z" fill-rule="evenodd"/><path stroke="#ff0000" stroke-width="3.0" stroke-linejoin="round" stroke-linecap="butt" d="m293.72177 348.32153l0 0c0 -3.8355713 2.9189758 -6.9448853 6.519684 -6.9448853l0 0c1.7291565 0 3.3874512 0.73168945 4.610138 2.0340881c1.2226562 1.3024292 1.9095764 3.0688782 1.9095764 4.910797l0 0c0 3.8355408 -2.9189758 6.9448853 -6.5197144 6.9448853l0 0c-3.600708 0 -6.519684 -3.1093445 -6.519684 -6.9448853z" fill-rule="evenodd"/><path fill="#000000" fill-opacity="0.0" d="m318.40683 377.34778l0 0c0 -3.8355713 2.9189453 -6.9448853 6.519684 -6.9448853l0 0c1.729126 0 3.3874207 0.73168945 4.6101074 2.0340881c1.2226868 1.3024292 1.9095764 3.0688782 1.9095764 4.910797l0 0c0 3.8355408 -2.9189758 6.9448853 -6.519684 6.9448853l0 0c-3.6007385 0 -6.519684 -3.1093445 -6.519684 -6.9448853z" fill-rule="evenodd"/><path stroke="#ff0000" stroke-width="3.0" stroke-linejoin="round" stroke-linecap="butt" d="m318.40683 377.34778l0 0c0 -3.8355713 2.9189453 -6.9448853 6.519684 -6.9448853l0 0c1.729126 0 3.3874207 0.73168945 4.6101074 2.0340881c1.2226868 1.3024292 1.9095764 3.0688782 1.9095764 4.910797l0 0c0 3.8355408 -2.9189758 6.9448853 -6.519684 6.9448853l0 0c-3.6007385 0 -6.519684 -3.1093445 -6.519684 -6.9448853z" fill-rule="evenodd"/><path fill="#0000ff" d="m267.6908 341.94016l1.228363 -1.228363l6.3826904 6.38266l6.38266 -6.38266l1.2283936 1.228363l-6.3826904 6.3826904l6.3826904 6.38266l-1.2283936 1.2283936l-6.38266 -6.3826904l-6.3826904 6.3826904l-1.228363 -1.2283936l6.38266 -6.38266z" fill-rule="evenodd"/><path stroke="#0000ff" stroke-width="1.0" stroke-linejoin="round" stroke-linecap="butt" d="m267.6908 341.94016l1.228363 -1.228363l6.3826904 6.38266l6.38266 -6.38266l1.2283936 1.228363l-6.3826904 6.3826904l6.3826904 6.38266l-1.2283936 1.2283936l-6.38266 -6.3826904l-6.3826904 6.3826904l-1.228363 -1.2283936l6.38266 -6.38266z" fill-rule="evenodd"/><path fill="#000000" fill-opacity="0.0" d="m268.78217 377.34778l0 0c0 -3.8355713 2.9189453 -6.9448853 6.519684 -6.9448853l0 0c1.729126 0 3.3874207 0.73168945 4.6101074 2.0340881c1.2226868 1.3024292 1.9095764 3.0688782 1.9095764 4.910797l0 0c0 3.8355408 -2.9189758 6.9448853 -6.519684 6.9448853l0 0c-3.6007385 0 -6.519684 -3.1093445 -6.519684 -6.9448853z" fill-rule="evenodd"/><path stroke="#ff0000" stroke-width="3.0" stroke-linejoin="round" stroke-linecap="butt" d="m268.78217 377.34778l0 0c0 -3.8355713 2.9189453 -6.9448853 6.519684 -6.9448853l0 0c1.729126 0 3.3874207 0.73168945 4.6101074 2.0340881c1.2226868 1.3024292 1.9095764 3.0688782 1.9095764 4.910797l0 0c0 3.8355408 -2.9189758 6.9448853 -6.519684 6.9448853l0 0c-3.6007385 0 -6.519684 -3.1093445 -6.519684 -6.9448853z" fill-rule="evenodd"/><path fill="#0000ff" d="m317.31546 315.263l1.2283936 -1.2283936l6.38266 6.3826904l6.38266 -6.3826904l1.2283936 1.2283936l-6.38266 6.38266l6.38266 6.3826904l-1.2283936 1.228363l-6.38266 -6.38266l-6.38266 6.38266l-1.2283936 -1.228363l6.38266 -6.3826904z" fill-rule="evenodd"/><path stroke="#0000ff" stroke-width="1.0" stroke-linejoin="round" stroke-linecap="butt" d="m317.31546 315.263l1.2283936 -1.2283936l6.38266 6.3826904l6.38266 -6.3826904l1.2283936 1.2283936l-6.38266 6.38266l6.38266 6.3826904l-1.2283936 1.228363l-6.38266 -6.38266l-6.38266 6.38266l-1.2283936 -1.228363l6.38266 -6.3826904z" fill-rule="evenodd"/><path fill="#000000" fill-opacity="0.0" d="m423.0223 310.24802l0 81.63782" fill-rule="evenodd"/><path stroke="#000000" stroke-width="1.0" stroke-linejoin="round" stroke-linecap="butt" d="m423.0223 310.24802l0 81.63782" fill-rule="evenodd"/><path fill="#000000" fill-opacity="0.0" d="m445.97244 310.24802l0 81.63782" fill-rule="evenodd"/><path stroke="#000000" stroke-width="1.0" stroke-linejoin="round" stroke-linecap="butt" d="m445.97244 310.24802l0 81.63782" fill-rule="evenodd"/><path fill="#000000" fill-opacity="0.0" d="m472.27692 335.79922l-77.29135 0" fill-rule="evenodd"/><path stroke="#000000" stroke-width="1.0" stroke-linejoin="round" stroke-linecap="butt" d="m472.27692 335.79922l-77.29135 0" fill-rule="evenodd"/><path fill="#000000" fill-opacity="0.0" d="m472.27692 362.22177l-75.55908 0" fill-rule="evenodd"/><path stroke="#000000" stroke-width="1.0" stroke-linejoin="round" stroke-linecap="butt" d="m472.27692 362.22177l-75.55908 0" fill-rule="evenodd"/><path fill="#0000ff" d="m402.57135 315.95197l1.2283936 -1.228363l6.38266 6.38266l6.3826904 -6.38266l1.228363 1.228363l-6.38266 6.3826904l6.38266 6.38266l-1.228363 1.2283936l-6.3826904 -6.3826904l-6.38266 6.3826904l-1.2283936 -1.2283936l6.3826904 -6.38266z" fill-rule="evenodd"/><path stroke="#0000ff" stroke-width="1.0" stroke-linejoin="round" stroke-linecap="butt" d="m402.57135 315.95197l1.2283936 -1.228363l6.38266 6.38266l6.3826904 -6.38266l1.228363 1.228363l-6.38266 6.3826904l6.38266 6.38266l-1.228363 1.2283936l-6.3826904 -6.3826904l-6.38266 6.3826904l-1.2283936 -1.2283936l6.3826904 -6.38266z" fill-rule="evenodd"/><path fill="#000000" fill-opacity="0.0" d="m427.9777 349.0105l0 0c0 -3.8355408 2.9189758 -6.9448853 6.519684 -6.9448853l0 0c1.729126 0 3.3874207 0.73168945 4.6101074 2.0341187c1.2226868 1.3023987 1.9095764 3.0688782 1.9095764 4.9107666l0 0c0 3.8355408 -2.9189758 6.9448853 -6.519684 6.9448853l0 0c-3.600708 0 -6.519684 -3.1093445 -6.519684 -6.9448853z" fill-rule="evenodd"/><path stroke="#ff0000" stroke-width="3.0" stroke-linejoin="round" stroke-linecap="butt" d="m427.9777 349.0105l0 0c0 -3.8355408 2.9189758 -6.9448853 6.519684 -6.9448853l0 0c1.729126 0 3.3874207 0.73168945 4.6101074 2.0341187c1.2226868 1.3023987 1.9095764 3.0688782 1.9095764 4.9107666l0 0c0 3.8355408 -2.9189758 6.9448853 -6.519684 6.9448853l0 0c-3.600708 0 -6.519684 -3.1093445 -6.519684 -6.9448853z" fill-rule="evenodd"/><path fill="#000000" fill-opacity="0.0" d="m452.66272 378.03674l0 0c0 -3.8355408 2.9189758 -6.9448853 6.519684 -6.9448853l0 0c1.729126 0 3.3874512 0.73168945 4.610138 2.0341187c1.2226562 1.3023987 1.9095459 3.0688782 1.9095459 4.9107666l0 0c0 3.8355408 -2.9189453 6.9448853 -6.519684 6.9448853l0 0c-3.600708 0 -6.519684 -3.1093445 -6.519684 -6.9448853z" fill-rule="evenodd"/><path stroke="#ff0000" stroke-width="3.0" stroke-linejoin="round" stroke-linecap="butt" d="m452.66272 378.03674l0 0c0 -3.8355408 2.9189758 -6.9448853 6.519684 -6.9448853l0 0c1.729126 0 3.3874512 0.73168945 4.610138 2.0341187c1.2226562 1.3023987 1.9095459 3.0688782 1.9095459 4.9107666l0 0c0 3.8355408 -2.9189453 6.9448853 -6.519684 6.9448853l0 0c-3.600708 0 -6.519684 -3.1093445 -6.519684 -6.9448853z" fill-rule="evenodd"/><path fill="#0000ff" d="m401.9467 342.62915l1.2283936 -1.2283936l6.38266 6.38266l6.38266 -6.38266l1.2283936 1.2283936l-6.38266 6.38266l6.38266 6.38266l-1.2283936 1.2283936l-6.38266 -6.38266l-6.38266 6.38266l-1.2283936 -1.2283936l6.38266 -6.38266z" fill-rule="evenodd"/><path stroke="#0000ff" stroke-width="1.0" stroke-linejoin="round" stroke-linecap="butt" d="m401.9467 342.62915l1.2283936 -1.2283936l6.38266 6.38266l6.38266 -6.38266l1.2283936 1.2283936l-6.38266 6.38266l6.38266 6.38266l-1.2283936 1.2283936l-6.38266 -6.38266l-6.38266 6.38266l-1.2283936 -1.2283936l6.38266 -6.38266z" fill-rule="evenodd"/><path fill="#000000" fill-opacity="0.0" d="m403.03806 378.03674l0 0c0 -3.8355408 2.9189758 -6.9448853 6.519684 -6.9448853l0 0c1.729126 0 3.3874512 0.73168945 4.6101074 2.0341187c1.2226868 1.3023987 1.9095764 3.0688782 1.9095764 4.9107666l0 0c0 3.8355408 -2.9189453 6.9448853 -6.519684 6.9448853l0 0c-3.600708 0 -6.519684 -3.1093445 -6.519684 -6.9448853z" fill-rule="evenodd"/><path stroke="#ff0000" stroke-width="3.0" stroke-linejoin="round" stroke-linecap="butt" d="m403.03806 378.03674l0 0c0 -3.8355408 2.9189758 -6.9448853 6.519684 -6.9448853l0 0c1.729126 0 3.3874512 0.73168945 4.6101074 2.0341187c1.2226868 1.3023987 1.9095764 3.0688782 1.9095764 4.9107666l0 0c0 3.8355408 -2.9189453 6.9448853 -6.519684 6.9448853l0 0c-3.600708 0 -6.519684 -3.1093445 -6.519684 -6.9448853z" fill-rule="evenodd"/><path fill="#0000ff" d="m451.57135 315.95197l1.2283936 -1.228363l6.38266 6.38266l6.3826904 -6.38266l1.228363 1.228363l-6.38266 6.3826904l6.38266 6.38266l-1.228363 1.2283936l-6.3826904 -6.3826904l-6.38266 6.3826904l-1.2283936 -1.2283936l6.3826904 -6.38266z" fill-rule="evenodd"/><path stroke="#0000ff" stroke-width="1.0" stroke-linejoin="round" stroke-linecap="butt" d="m451.57135 315.95197l1.2283936 -1.228363l6.38266 6.38266l6.3826904 -6.38266l1.228363 1.228363l-6.38266 6.3826904l6.38266 6.38266l-1.228363 1.2283936l-6.3826904 -6.3826904l-6.38266 6.3826904l-1.2283936 -1.2283936l6.3826904 -6.38266z" fill-rule="evenodd"/><path fill="#000000" fill-opacity="0.0" d="m557.2756 310.2467l0 81.63782" fill-rule="evenodd"/><path stroke="#000000" stroke-width="1.0" stroke-linejoin="round" stroke-linecap="butt" d="m557.2756 310.2467l0 81.63782" fill-rule="evenodd"/><path fill="#000000" fill-opacity="0.0" d="m580.2257 310.2467l0 81.63782" fill-rule="evenodd"/><path stroke="#000000" stroke-width="1.0" stroke-linejoin="round" stroke-linecap="butt" d="m580.2257 310.2467l0 81.63782" fill-rule="evenodd"/><path fill="#000000" fill-opacity="0.0" d="m606.5302 335.7979l-77.29138 0" fill-rule="evenodd"/><path stroke="#000000" stroke-width="1.0" stroke-linejoin="round" stroke-linecap="butt" d="m606.5302 335.7979l-77.29138 0" fill-rule="evenodd"/><path fill="#000000" fill-opacity="0.0" d="m606.5302 362.22046l-75.55908 0" fill-rule="evenodd"/><path stroke="#000000" stroke-width="1.0" stroke-linejoin="round" stroke-linecap="butt" d="m606.5302 362.22046l-75.55908 0" fill-rule="evenodd"/><path fill="#0000ff" d="m536.82465 315.95065l1.2283936 -1.228363l6.3826294 6.38266l6.3826904 -6.38266l1.2283936 1.228363l-6.3826904 6.3826904l6.3826904 6.38266l-1.2283936 1.2283936l-6.3826904 -6.3826904l-6.3826294 6.3826904l-1.2283936 -1.2283936l6.3826904 -6.38266z" fill-rule="evenodd"/><path stroke="#0000ff" stroke-width="1.0" stroke-linejoin="round" stroke-linecap="butt" d="m536.82465 315.95065l1.2283936 -1.228363l6.3826294 6.38266l6.3826904 -6.38266l1.2283936 1.228363l-6.3826904 6.3826904l6.3826904 6.38266l-1.2283936 1.2283936l-6.3826904 -6.3826904l-6.3826294 6.3826904l-1.2283936 -1.2283936l6.3826904 -6.38266z" fill-rule="evenodd"/><path fill="#000000" fill-opacity="0.0" d="m562.23096 349.0092l0 0c0 -3.8355408 2.9190063 -6.9448853 6.5197144 -6.9448853l0 0c1.729126 0 3.3873901 0.73168945 4.6101074 2.0341187c1.2226562 1.3023987 1.9095459 3.0688782 1.9095459 4.9107666l0 0c0 3.8355408 -2.9189453 6.9448853 -6.5196533 6.9448853l0 0c-3.600708 0 -6.5197144 -3.1093445 -6.5197144 -6.9448853z" fill-rule="evenodd"/><path stroke="#ff0000" stroke-width="3.0" stroke-linejoin="round" stroke-linecap="butt" d="m562.23096 349.0092l0 0c0 -3.8355408 2.9190063 -6.9448853 6.5197144 -6.9448853l0 0c1.729126 0 3.3873901 0.73168945 4.6101074 2.0341187c1.2226562 1.3023987 1.9095459 3.0688782 1.9095459 4.9107666l0 0c0 3.8355408 -2.9189453 6.9448853 -6.5196533 6.9448853l0 0c-3.600708 0 -6.5197144 -3.1093445 -6.5197144 -6.9448853z" fill-rule="evenodd"/><path fill="#000000" fill-opacity="0.0" d="m586.916 378.03543l0 0c0 -3.8355408 2.9189453 -6.9448853 6.5196533 -6.9448853l0 0c1.729126 0 3.3874512 0.73168945 4.6101685 2.0341187c1.2226562 1.3023987 1.9095459 3.0688782 1.9095459 4.9107666l0 0c0 3.8355408 -2.9189453 6.9448853 -6.5197144 6.9448853l0 0c-3.600708 0 -6.5196533 -3.1093445 -6.5196533 -6.9448853z" fill-rule="evenodd"/><path stroke="#ff0000" stroke-width="3.0" stroke-linejoin="round" stroke-linecap="butt" d="m586.916 378.03543l0 0c0 -3.8355408 2.9189453 -6.9448853 6.5196533 -6.9448853l0 0c1.729126 0 3.3874512 0.73168945 4.6101685 2.0341187c1.2226562 1.3023987 1.9095459 3.0688782 1.9095459 4.9107666l0 0c0 3.8355408 -2.9189453 6.9448853 -6.5197144 6.9448853l0 0c-3.600708 0 -6.5196533 -3.1093445 -6.5196533 -6.9448853z" fill-rule="evenodd"/><path fill="#0000ff" d="m536.19995 342.62784l1.2283936 -1.2283936l6.3826904 6.38266l6.3826294 -6.38266l1.2283936 1.2283936l-6.3826294 6.38266l6.3826294 6.38266l-1.2283936 1.2283936l-6.3826294 -6.38266l-6.3826904 6.38266l-1.2283936 -1.2283936l6.3826904 -6.38266z" fill-rule="evenodd"/><path stroke="#0000ff" stroke-width="1.0" stroke-linejoin="round" stroke-linecap="butt" d="m536.19995 342.62784l1.2283936 -1.2283936l6.3826904 6.38266l6.3826294 -6.38266l1.2283936 1.2283936l-6.3826294 6.38266l6.3826294 6.38266l-1.2283936 1.2283936l-6.3826294 -6.38266l-6.3826904 6.38266l-1.2283936 -1.2283936l6.3826904 -6.38266z" fill-rule="evenodd"/><path fill="#000000" fill-opacity="0.0" d="m537.2913 378.03543l0 0c0 -3.8355408 2.9190063 -6.9448853 6.5197144 -6.9448853l0 0c1.729126 0 3.3874512 0.73168945 4.6101074 2.0341187c1.2226562 1.3023987 1.9095459 3.0688782 1.9095459 4.9107666l0 0c0 3.8355408 -2.9189453 6.9448853 -6.5196533 6.9448853l0 0c-3.600708 0 -6.5197144 -3.1093445 -6.5197144 -6.9448853z" fill-rule="evenodd"/><path stroke="#ff0000" stroke-width="3.0" stroke-linejoin="round" stroke-linecap="butt" d="m537.2913 378.03543l0 0c0 -3.8355408 2.9190063 -6.9448853 6.5197144 -6.9448853l0 0c1.729126 0 3.3874512 0.73168945 4.6101074 2.0341187c1.2226562 1.3023987 1.9095459 3.0688782 1.9095459 4.9107666l0 0c0 3.8355408 -2.9189453 6.9448853 -6.5196533 6.9448853l0 0c-3.600708 0 -6.5197144 -3.1093445 -6.5197144 -6.9448853z" fill-rule="evenodd"/><path fill="#0000ff" d="m585.82465 315.95065l1.2283936 -1.228363l6.3826294 6.38266l6.3826904 -6.38266l1.2283936 1.228363l-6.3826904 6.3826904l6.3826904 6.38266l-1.2283936 1.2283936l-6.3826904 -6.3826904l-6.3826294 6.3826904l-1.2283936 -1.2283936l6.3826904 -6.38266z" fill-rule="evenodd"/><path stroke="#0000ff" stroke-width="1.0" stroke-linejoin="round" stroke-linecap="butt" d="m585.82465 315.95065l1.2283936 -1.228363l6.3826294 6.38266l6.3826904 -6.38266l1.2283936 1.228363l-6.3826904 6.3826904l6.3826904 6.38266l-1.2283936 1.2283936l-6.3826904 -6.3826904l-6.3826294 6.3826904l-1.2283936 -1.2283936l6.3826904 -6.38266z" fill-rule="evenodd"/><path fill="#000000" fill-opacity="0.0" d="m293.72177 375.437l0 0c0 -3.8355713 2.9189758 -6.9448853 6.519684 -6.9448853l0 0c1.7291565 0 3.3874512 0.73168945 4.610138 2.0341187c1.2226562 1.3023987 1.9095764 3.0688782 1.9095764 4.9107666l0 0c0 3.8355408 -2.9189758 6.9448853 -6.5197144 6.9448853l0 0c-3.600708 0 -6.519684 -3.1093445 -6.519684 -6.9448853z" fill-rule="evenodd"/><path stroke="#ff0000" stroke-width="3.0" stroke-linejoin="round" stroke-linecap="butt" d="m293.72177 375.437l0 0c0 -3.8355713 2.9189758 -6.9448853 6.519684 -6.9448853l0 0c1.7291565 0 3.3874512 0.73168945 4.610138 2.0341187c1.2226562 1.3023987 1.9095764 3.0688782 1.9095764 4.9107666l0 0c0 3.8355408 -2.9189758 6.9448853 -6.5197144 6.9448853l0 0c-3.600708 0 -6.519684 -3.1093445 -6.519684 -6.9448853z" fill-rule="evenodd"/><path fill="#000000" fill-opacity="0.0" d="m428.29135 322.58923l0 0c0 -3.8355408 2.9189453 -6.9448853 6.519684 -6.9448853l0 0c1.729126 0 3.3874207 0.73168945 4.6101074 2.0341187c1.2226868 1.3024292 1.9095764 3.0688782 1.9095764 4.9107666l0 0c0 3.8355713 -2.9189758 6.9448853 -6.519684 6.9448853l0 0c-3.6007385 0 -6.519684 -3.109314 -6.519684 -6.9448853z" fill-rule="evenodd"/><path stroke="#ff0000" stroke-width="3.0" stroke-linejoin="round" stroke-linecap="butt" d="m428.29135 322.58923l0 0c0 -3.8355408 2.9189453 -6.9448853 6.519684 -6.9448853l0 0c1.729126 0 3.3874207 0.73168945 4.6101074 2.0341187c1.2226868 1.3024292 1.9095764 3.0688782 1.9095764 4.9107666l0 0c0 3.8355713 -2.9189758 6.9448853 -6.519684 6.9448853l0 0c-3.6007385 0 -6.519684 -3.109314 -6.519684 -6.9448853z" fill-rule="evenodd"/><path fill="#000000" fill-opacity="0.0" d="m585.1811 349.00787l0 0c0 -3.8355408 2.9189453 -6.9448853 6.5197144 -6.9448853l0 0c1.729126 0 3.3873901 0.73168945 4.6101074 2.0341187c1.2226562 1.3023987 1.9095459 3.0688782 1.9095459 4.9107666l0 0c0 3.8355408 -2.9189453 6.9448853 -6.5196533 6.9448853l0 0c-3.600769 0 -6.5197144 -3.1093445 -6.5197144 -6.9448853z" fill-rule="evenodd"/><path stroke="#ff0000" stroke-width="3.0" stroke-linejoin="round" stroke-linecap="butt" d="m585.1811 349.00787l0 0c0 -3.8355408 2.9189453 -6.9448853 6.5197144 -6.9448853l0 0c1.729126 0 3.3873901 0.73168945 4.6101074 2.0341187c1.2226562 1.3023987 1.9095459 3.0688782 1.9095459 4.9107666l0 0c0 3.8355408 -2.9189453 6.9448853 -6.5196533 6.9448853l0 0c-3.600769 0 -6.5197144 -3.1093445 -6.5197144 -6.9448853z" fill-rule="evenodd"/><path fill="#000000" fill-opacity="0.0" d="m491.09448 206.80315l171.40155 0" fill-rule="evenodd"/><path stroke="#000000" stroke-width="1.0" stroke-linejoin="round" stroke-linecap="butt" d="m491.09448 206.80315l165.40155 0" fill-rule="evenodd"/><path fill="#000000" stroke="#000000" stroke-width="1.0" stroke-linecap="butt" d="m656.49603 208.45488l4.538147 -1.6517334l-4.538147 -1.6517334z" fill-rule="evenodd"/><path fill="#000000" fill-opacity="0.0" d="m434.2126 229.82677l0 40.116653l-134.14172 0l0 40.10382" fill-rule="evenodd"/><path stroke="#000000" stroke-width="1.0" stroke-linejoin="round" stroke-linecap="butt" d="m434.2126 229.82677l0 40.116653l-134.14172 0l0 34.10382" fill-rule="evenodd"/><path fill="#000000" stroke="#000000" stroke-width="1.0" stroke-linecap="butt" d="m298.41913 304.04724l1.6517334 4.538086l1.6517334 -4.538086z" fill-rule="evenodd"/><path fill="#000000" fill-opacity="0.0" d="m261.42258 310.06036l77.29132 0l0 86.834656l-77.29132 0z" fill-rule="evenodd"/><path fill="#000000" fill-opacity="0.0" d="m394.98425 310.06036l77.29135 0l0 86.834656l-77.29135 0z" fill-rule="evenodd"/><path fill="#000000" fill-opacity="0.0" d="m528.5512 310.06036l77.29132 0l0 86.834656l-77.29132 0z" fill-rule="evenodd"/><path fill="#000000" fill-opacity="0.0" d="m434.2126 229.82677l0 40.116653l-0.56692505 0l0 40.10382" fill-rule="evenodd"/><path stroke="#000000" stroke-width="1.0" stroke-linejoin="round" stroke-linecap="butt" d="m434.2126 229.82677l0 40.116653l-0.56692505 0l0 34.10382" fill-rule="evenodd"/><path fill="#000000" stroke="#000000" stroke-width="1.0" stroke-linecap="butt" d="m431.99393 304.04724l1.6517334 4.538086l1.6517334 -4.538086z" fill-rule="evenodd"/><path fill="#000000" fill-opacity="0.0" d="m434.2126 229.82677l0 40.116653l132.97638 0l0 40.10382" fill-rule="evenodd"/><path stroke="#000000" stroke-width="1.0" stroke-linejoin="round" stroke-linecap="butt" d="m434.2126 229.82677l0 40.116653l132.97638 0l0 34.10382" fill-rule="evenodd"/><path fill="#000000" stroke="#000000" stroke-width="1.0" stroke-linecap="butt" d="m565.53723 304.04724l1.6517334 4.538086l1.6517334 -4.538086z" fill-rule="evenodd"/><path fill="#000000" fill-opacity="0.0" d="m434.81104 142.979l-0.5984497 40.7874" fill-rule="evenodd"/><path stroke="#000000" stroke-width="1.0" stroke-linejoin="round" stroke-linecap="butt" d="m434.81104 142.979l-0.510437 34.788055" fill-rule="evenodd"/><path fill="#000000" stroke="#000000" stroke-width="1.0" stroke-linecap="butt" d="m432.64908 177.74281l1.5849609 4.561844l1.7181396 -4.513382z" fill-rule="evenodd"/><path fill="#000000" fill-opacity="0.0" d="m300.06824 396.89502l-0.6929016 55.18109" fill-rule="evenodd"/><path stroke="#000000" stroke-width="1.0" stroke-linejoin="round" stroke-linecap="butt" d="m300.06824 396.89502l-0.6175842 49.18158" fill-rule="evenodd"/><path fill="#000000" stroke="#000000" stroke-width="1.0" stroke-linecap="butt" d="m297.79907 446.05585l1.5946045 4.5584717l1.7085876 -4.5169983z" fill-rule="evenodd"/><path fill="#000000" fill-opacity="0.0" d="m433.6299 396.89502l0 55.18109" fill-rule="evenodd"/><path stroke="#000000" stroke-width="1.0" stroke-linejoin="round" stroke-linecap="butt" d="m433.6299 396.89502l0 49.18109" fill-rule="evenodd"/><path fill="#000000" stroke="#000000" stroke-width="1.0" stroke-linecap="butt" d="m431.97818 446.0761l1.6517334 4.5381165l1.6517334 -4.5381165z" fill-rule="evenodd"/><path fill="#000000" fill-opacity="0.0" d="m567.19684 396.89502l0.6929321 55.18109" fill-rule="evenodd"/><path stroke="#000000" stroke-width="1.0" stroke-linejoin="round" stroke-linecap="butt" d="m567.19684 396.89502l0.61761475 49.18158" fill-rule="evenodd"/><path fill="#000000" stroke="#000000" stroke-width="1.0" stroke-linecap="butt" d="m566.16284 446.09732l1.7085571 4.5169983l1.5946045 -4.5584717z" fill-rule="evenodd"/><path fill="#000000" fill-opacity="0.0" d="m157.03412 273.15222l117.25986 0l0 23.46457l-117.25986 0z" fill-rule="evenodd"/><path fill="#000000" d="m173.581 298.88474q-0.921875 0.765625 -1.765625 1.09375q-0.828125 0.3125 -1.796875 0.3125q-1.59375 0 -2.453125 -0.78125q-0.859375 -0.78125 -0.859375 -1.984375q0 -0.71875 0.328125 -1.296875q0.328125 -0.59375 0.84375 -0.9375q0.53125 -0.359375 1.1875 -0.546875q0.46875 -0.125 1.453125 -0.25q1.984375 -0.234375 2.921875 -0.5625q0.015625 -0.34375 0.015625 -0.421875q0 -1.0 -0.46875 -1.421875q-0.625 -0.546875 -1.875 -0.546875q-1.15625 0 -1.703125 0.40625q-0.546875 0.40625 -0.8125 1.421875l-1.609375 -0.21875q0.21875 -1.015625 0.71875 -1.640625q0.5 -0.640625 1.453125 -0.984375q0.953125 -0.34375 2.1875 -0.34375q1.25 0 2.015625 0.296875q0.78125 0.28125 1.140625 0.734375q0.375 0.4375 0.515625 1.109375q0.078125 0.421875 0.078125 1.515625l0 2.1875q0 2.28125 0.109375 2.890625q0.109375 0.59375 0.40625 1.15625l-1.703125 0q-0.265625 -0.515625 -0.328125 -1.1875zm-0.140625 -3.671875q-0.890625 0.375 -2.671875 0.625q-1.015625 0.140625 -1.4375 0.328125q-0.421875 0.1875 -0.65625 0.53125q-0.21875 0.34375 -0.21875 0.78125q0 0.65625 0.5 1.09375q0.5 0.4375 1.453125 0.4375q0.9375 0 1.671875 -0.40625q0.75 -0.421875 1.09375 -1.140625q0.265625 -0.5625 0.265625 -1.640625l0 -0.609375zm10.516342 1.3125l1.609375 0.21875q-0.265625 1.65625 -1.359375 2.609375q-1.078125 0.9375 -2.671875 0.9375q-1.984375 0 -3.1875 -1.296875q-1.203125 -1.296875 -1.203125 -3.71875q0 -1.578125 0.515625 -2.75q0.515625 -1.171875 1.578125 -1.75q1.0625 -0.59375 2.3125 -0.59375q1.578125 0 2.578125 0.796875q1.0 0.796875 1.28125 2.265625l-1.59375 0.234375q-0.234375 -0.96875 -0.8125 -1.453125q-0.578125 -0.5 -1.390625 -0.5q-1.234375 0 -2.015625 0.890625q-0.78125 0.890625 -0.78125 2.8125q0 1.953125 0.75 2.84375q0.75 0.875 1.953125 0.875q0.96875 0 1.609375 -0.59375q0.65625 -0.59375 0.828125 -1.828125zm6.59375 2.078125l0.234375 1.453125q-0.6875 0.140625 -1.234375 0.140625q-0.890625 0 -1.390625 -0.28125q-0.484375 -0.28125 -0.6875 -0.734375q-0.203125 -0.46875 -0.203125 -1.9375l0 -5.578125l-1.203125 0l0 -1.265625l1.203125 0l0 -2.390625l1.625 -0.984375l0 3.375l1.65625 0l0 1.265625l-1.65625 0l0 5.671875q0 0.6875 0.078125 0.890625q0.09375 0.203125 0.28125 0.328125q0.203125 0.109375 0.578125 0.109375q0.265625 0 0.71875 -0.0625zm1.6051788 -10.0l0 -1.890625l1.640625 0l0 1.890625l-1.640625 0zm0 11.46875l0 -9.671875l1.640625 0l0 9.671875l-1.640625 0zm3.5354462 -4.84375q0 -2.6875 1.484375 -3.96875q1.25 -1.078125 3.046875 -1.078125q2.0 0 3.265625 1.3125q1.265625 1.296875 1.265625 3.609375q0 1.859375 -0.5625 2.9375q-0.5625 1.0625 -1.640625 1.65625q-1.0625 0.59375 -2.328125 0.59375q-2.03125 0 -3.28125 -1.296875q-1.25 -1.3125 -1.25 -3.765625zm1.6875 0q0 1.859375 0.796875 2.796875q0.8125 0.921875 2.046875 0.921875q1.21875 0 2.03125 -0.921875q0.8125 -0.9375 0.8125 -2.84375q0 -1.796875 -0.8125 -2.71875q-0.8125 -0.921875 -2.03125 -0.921875q-1.234375 0 -2.046875 0.921875q-0.796875 0.90625 -0.796875 2.765625zm9.297592 4.84375l0 -9.671875l1.46875 0l0 1.375q1.0625 -1.59375 3.078125 -1.59375q0.875 0 1.609375 0.3125q0.734375 0.3125 1.09375 0.828125q0.375 0.5 0.515625 1.203125q0.09375 0.453125 0.09375 1.59375l0 5.953125l-1.640625 0l0 -5.890625q0 -1.0 -0.203125 -1.484375q-0.1875 -0.5 -0.671875 -0.796875q-0.484375 -0.296875 -1.140625 -0.296875q-1.046875 0 -1.8125 0.671875q-0.75 0.65625 -0.75 2.515625l0 5.28125l-1.640625 0zm9.719467 -2.890625l1.625 -0.25q0.125 0.96875 0.75 1.5q0.625 0.515625 1.75 0.515625q1.125 0 1.671875 -0.453125q0.546875 -0.46875 0.546875 -1.09375q0 -0.546875 -0.484375 -0.875q-0.328125 -0.21875 -1.671875 -0.546875q-1.8125 -0.46875 -2.515625 -0.796875q-0.6875 -0.328125 -1.046875 -0.90625q-0.359375 -0.59375 -0.359375 -1.3125q0 -0.640625 0.296875 -1.1875q0.296875 -0.5625 0.8125 -0.921875q0.375 -0.28125 1.03125 -0.46875q0.671875 -0.203125 1.421875 -0.203125q1.140625 0 2.0 0.328125q0.859375 0.328125 1.265625 0.890625q0.421875 0.5625 0.578125 1.5l-1.609375 0.21875q-0.109375 -0.75 -0.640625 -1.171875q-0.515625 -0.421875 -1.46875 -0.421875q-1.140625 0 -1.625 0.375q-0.46875 0.375 -0.46875 0.875q0 0.3125 0.1875 0.578125q0.203125 0.265625 0.640625 0.4375q0.234375 0.09375 1.4375 0.421875q1.75 0.453125 2.4375 0.75q0.6875 0.296875 1.078125 0.859375q0.390625 0.5625 0.390625 1.40625q0 0.828125 -0.484375 1.546875q-0.46875 0.71875 -1.375 1.125q-0.90625 0.390625 -2.046875 0.390625q-1.875 0 -2.875 -0.78125q-0.984375 -0.78125 -1.25 -2.328125z" fill-rule="nonzero"/><path fill="#000000" fill-opacity="0.0" d="m301.2467 498.02362l-0.6929016 35.24408" fill-rule="evenodd"/><path stroke="#000000" stroke-width="1.0" stroke-linejoin="round" stroke-linecap="butt" d="m301.2467 498.02362l-0.5749512 29.24524" fill-rule="evenodd"/><path fill="#000000" stroke="#000000" stroke-width="1.0" stroke-linecap="butt" d="m299.02032 527.2364l1.5622253 4.569702l1.7406006 -4.5047607z" fill-rule="evenodd"/><path fill="#000000" fill-opacity="0.0" d="m434.8084 498.02362l0 35.24408" fill-rule="evenodd"/><path stroke="#000000" stroke-width="1.0" stroke-linejoin="round" stroke-linecap="butt" d="m434.8084 498.02362l0 29.24408" fill-rule="evenodd"/><path fill="#000000" stroke="#000000" stroke-width="1.0" stroke-linecap="butt" d="m433.15668 527.2677l1.6517334 4.538086l1.6517334 -4.538086z" fill-rule="evenodd"/><path fill="#000000" fill-opacity="0.0" d="m568.3753 498.02362l0.6929321 35.24408" fill-rule="evenodd"/><path stroke="#000000" stroke-width="1.0" stroke-linejoin="round" stroke-linecap="butt" d="m568.3753 498.02362l0.5750122 29.24524" fill-rule="evenodd"/><path fill="#000000" stroke="#000000" stroke-width="1.0" stroke-linecap="butt" d="m567.2989 527.30133l1.7406006 4.5047607l1.5622559 -4.569702z" fill-rule="evenodd"/><path fill="#000000" fill-opacity="0.0" d="m294.37927 546.66534l0 0c0 -3.8355713 2.9189453 -6.9448853 6.519684 -6.9448853l0 0c1.729126 0 3.3874207 0.73168945 4.6101074 2.0341187c1.2226868 1.3024292 1.9095764 3.0689087 1.9095764 4.9107666l0 0c0 3.8355713 -2.9189758 6.9448853 -6.519684 6.9448853l0 0c-3.6007385 0 -6.519684 -3.109314 -6.519684 -6.9448853z" fill-rule="evenodd"/><path stroke="#ff0000" stroke-width="3.0" stroke-linejoin="round" stroke-linecap="butt" d="m294.37927 546.66534l0 0c0 -3.8355713 2.9189453 -6.9448853 6.519684 -6.9448853l0 0c1.729126 0 3.3874207 0.73168945 4.6101074 2.0341187c1.2226868 1.3024292 1.9095764 3.0689087 1.9095764 4.9107666l0 0c0 3.8355713 -2.9189758 6.9448853 -6.519684 6.9448853l0 0c-3.6007385 0 -6.519684 -3.109314 -6.519684 -6.9448853z" fill-rule="evenodd"/><path fill="#0000ff" d="m563.19867 546.8037l1.2283936 -1.2283936l6.3826294 6.3826294l6.3826904 -6.3826294l1.2283936 1.2283936l-6.3826904 6.3826294l6.3826904 6.3826904l-1.2283936 1.2283936l-6.3826904 -6.3826904l-6.3826294 6.3826904l-1.2283936 -1.2283936l6.3826294 -6.3826904z" fill-rule="evenodd"/><path stroke="#0000ff" stroke-width="1.0" stroke-linejoin="round" stroke-linecap="butt" d="m563.19867 546.8037l1.2283936 -1.2283936l6.3826294 6.3826294l6.3826904 -6.3826294l1.2283936 1.2283936l-6.3826904 6.3826294l6.3826904 6.3826904l-1.2283936 1.2283936l-6.3826904 -6.3826904l-6.3826294 6.3826904l-1.2283936 -1.2283936l6.3826294 -6.3826904z" fill-rule="evenodd"/><path fill="#000000" fill-opacity="0.0" d="m388.24146 527.063l88.28348 0l0 23.4646l-88.28348 0z" fill-rule="evenodd"/><path fill="#ff9900" d="m420.99258 551.423l0 -8.296875l1.265625 0l0 1.171875q0.90625 -1.359375 2.640625 -1.359375q0.75 0 1.375 0.265625q0.625 0.265625 0.9375 0.703125q0.3125 0.4375 0.4375 1.046875q0.078125 0.390625 0.078125 1.359375l0 5.109375l-1.40625 0l0 -5.046875q0 -0.859375 -0.171875 -1.28125q-0.15625 -0.4375 -0.578125 -0.6875q-0.40625 -0.25 -0.96875 -0.25q-0.90625 0 -1.5625 0.578125q-0.640625 0.5625 -0.640625 2.15625l0 4.53125l-1.40625 0zm14.3359375 0l0 -1.21875q-0.96875 1.40625 -2.640625 1.40625q-0.734375 0 -1.375 -0.28125q-0.625 -0.28125 -0.9375 -0.703125q-0.3125 -0.4375 -0.4375 -1.046875q-0.078125 -0.421875 -0.078125 -1.3125l0 -5.140625l1.40625 0l0 4.59375q0 1.109375 0.078125 1.484375q0.140625 0.5625 0.5625 0.875q0.4375 0.3125 1.0625 0.3125q0.640625 0 1.1875 -0.3125q0.5625 -0.328125 0.78125 -0.890625q0.234375 -0.5625 0.234375 -1.625l0 -4.4375l1.40625 0l0 8.296875l-1.25 0zm3.4296875 0l0 -11.453125l1.40625 0l0 11.453125l-1.40625 0zm3.5546875 0l0 -11.453125l1.40625 0l0 11.453125l-1.40625 0z" fill-rule="nonzero"/><path fill="#000000" fill-opacity="0.0" d="m301.2467 565.90027l-0.6929016 35.24408" fill-rule="evenodd"/><path stroke="#000000" stroke-width="1.0" stroke-linejoin="round" stroke-linecap="butt" d="m301.2467 565.90027l-0.5749512 29.24524" fill-rule="evenodd"/><path fill="#000000" stroke="#000000" stroke-width="1.0" stroke-linecap="butt" d="m299.02032 595.11304l1.5622253 4.569702l1.7406006 -4.5047607z" fill-rule="evenodd"/><path fill="#000000" fill-opacity="0.0" d="m434.8084 565.90027l0 35.24408" fill-rule="evenodd"/><path stroke="#000000" stroke-width="1.0" stroke-linejoin="round" stroke-linecap="butt" d="m434.8084 565.90027l0 29.24408" fill-rule="evenodd"/><path fill="#000000" stroke="#000000" stroke-width="1.0" stroke-linecap="butt" d="m433.15668 595.14435l1.6517334 4.538086l1.6517334 -4.538086z" fill-rule="evenodd"/><path fill="#000000" fill-opacity="0.0" d="m568.3753 565.90027l0.6929321 35.24408" fill-rule="evenodd"/><path stroke="#000000" stroke-width="1.0" stroke-linejoin="round" stroke-linecap="butt" d="m568.3753 565.90027l0.5750122 29.24524" fill-rule="evenodd"/><path fill="#000000" stroke="#000000" stroke-width="1.0" stroke-linecap="butt" d="m567.2989 595.178l1.7406006 4.5047607l1.5622559 -4.569702z" fill-rule="evenodd"/><path fill="#000000" fill-opacity="0.0" d="m281.82153 604.17584l305.07086 0l0 46.04724l-305.07086 0z" fill-rule="evenodd"/><path stroke="#000000" stroke-width="3.0" stroke-linejoin="round" stroke-linecap="butt" d="m281.82153 604.17584l305.07086 0l0 46.04724l-305.07086 0z" fill-rule="evenodd"/><path fill="#000000" d="m364.03882 631.0958l0 -9.671875l1.46875 0l0 1.46875q0.5625 -1.03125 1.03125 -1.359375q0.484375 -0.328125 1.0625 -0.328125q0.828125 0 1.6875 0.53125l-0.5625 1.515625q-0.609375 -0.359375 -1.203125 -0.359375q-0.546875 0 -0.96875 0.328125q-0.421875 0.328125 -0.609375 0.890625q-0.28125 0.875 -0.28125 1.921875l0 5.0625l-1.625 0zm12.853302 -3.109375l1.6875 0.203125q-0.40625 1.484375 -1.484375 2.3125q-1.078125 0.8125 -2.765625 0.8125q-2.125 0 -3.375 -1.296875q-1.234375 -1.3125 -1.234375 -3.671875q0 -2.453125 1.25 -3.796875q1.265625 -1.34375 3.265625 -1.34375q1.9375 0 3.15625 1.328125q1.234375 1.3125 1.234375 3.703125q0 0.15625 0 0.4375l-7.21875 0q0.09375 1.59375 0.90625 2.453125q0.8125 0.84375 2.015625 0.84375q0.90625 0 1.546875 -0.46875q0.640625 -0.484375 1.015625 -1.515625zm-5.390625 -2.65625l5.40625 0q-0.109375 -1.21875 -0.625 -1.828125q-0.78125 -0.953125 -2.03125 -0.953125q-1.125 0 -1.90625 0.765625q-0.765625 0.75 -0.84375 2.015625zm15.453857 2.21875l1.609375 0.21875q-0.265625 1.65625 -1.359375 2.609375q-1.078125 0.9375 -2.671875 0.9375q-1.984375 0 -3.1875 -1.296875q-1.203125 -1.296875 -1.203125 -3.71875q0 -1.578125 0.515625 -2.75q0.515625 -1.171875 1.578125 -1.75q1.0625 -0.59375 2.3125 -0.59375q1.578125 0 2.578125 0.796875q1.0 0.796875 1.28125 2.265625l-1.59375 0.234375q-0.234375 -0.96875 -0.8125 -1.453125q-0.578125 -0.5 -1.390625 -0.5q-1.234375 0 -2.015625 0.890625q-0.78125 0.890625 -0.78125 2.8125q0 1.953125 0.75 2.84375q0.75 0.875 1.953125 0.875q0.96875 0 1.609375 -0.59375q0.65625 -0.59375 0.828125 -1.828125zm9.34375 3.546875l0 -1.421875q-1.125 1.640625 -3.0625 1.640625q-0.859375 0 -1.609375 -0.328125q-0.734375 -0.328125 -1.09375 -0.828125q-0.359375 -0.5 -0.5 -1.21875q-0.109375 -0.46875 -0.109375 -1.53125l0 -5.984375l1.640625 0l0 5.359375q0 1.28125 0.109375 1.734375q0.15625 0.640625 0.65625 1.015625q0.5 0.375 1.234375 0.375q0.734375 0 1.375 -0.375q0.65625 -0.390625 0.921875 -1.03125q0.265625 -0.65625 0.265625 -1.890625l0 -5.1875l1.640625 0l0 9.671875l-1.46875 0zm4.031952 0l0 -9.671875l1.46875 0l0 1.46875q0.5625 -1.03125 1.03125 -1.359375q0.484375 -0.328125 1.0625 -0.328125q0.828125 0 1.6875 0.53125l-0.5625 1.515625q-0.609375 -0.359375 -1.203125 -0.359375q-0.546875 0 -0.96875 0.328125q-0.421875 0.328125 -0.609375 0.890625q-0.28125 0.875 -0.28125 1.921875l0 5.0625l-1.625 0zm5.572052 -2.890625l1.625 -0.25q0.125 0.96875 0.75 1.5q0.625 0.515625 1.75 0.515625q1.125 0 1.671875 -0.453125q0.546875 -0.46875 0.546875 -1.09375q0 -0.546875 -0.484375 -0.875q-0.328125 -0.21875 -1.671875 -0.546875q-1.8125 -0.46875 -2.515625 -0.796875q-0.6875 -0.328125 -1.046875 -0.90625q-0.359375 -0.59375 -0.359375 -1.3125q0 -0.640625 0.296875 -1.1875q0.296875 -0.5625 0.8125 -0.921875q0.375 -0.28125 1.03125 -0.46875q0.671875 -0.203125 1.421875 -0.203125q1.140625 0 2.0 0.328125q0.859375 0.328125 1.265625 0.890625q0.421875 0.5625 0.578125 1.5l-1.609375 0.21875q-0.109375 -0.75 -0.640625 -1.171875q-0.515625 -0.421875 -1.46875 -0.421875q-1.140625 0 -1.625 0.375q-0.46875 0.375 -0.46875 0.875q0 0.3125 0.1875 0.578125q0.203125 0.265625 0.640625 0.4375q0.234375 0.09375 1.4375 0.421875q1.75 0.453125 2.4375 0.75q0.6875 0.296875 1.078125 0.859375q0.390625 0.5625 0.390625 1.40625q0 0.828125 -0.484375 1.546875q-0.46875 0.71875 -1.375 1.125q-0.90625 0.390625 -2.046875 0.390625q-1.875 0 -2.875 -0.78125q-0.984375 -0.78125 -1.25 -2.328125zm9.984375 -8.578125l0 -1.890625l1.640625 0l0 1.890625l-1.640625 0zm0 11.46875l0 -9.671875l1.640625 0l0 9.671875l-1.640625 0zm6.8323364 0l-3.6875 -9.671875l1.734375 0l2.078125 5.796875q0.328125 0.9375 0.625 1.9375q0.203125 -0.765625 0.609375 -1.828125l2.140625 -5.90625l1.6875 0l-3.65625 9.671875l-1.53125 0zm13.265625 -3.109375l1.6875 0.203125q-0.40625 1.484375 -1.484375 2.3125q-1.078125 0.8125 -2.765625 0.8125q-2.125 0 -3.375 -1.296875q-1.234375 -1.3125 -1.234375 -3.671875q0 -2.453125 1.25 -3.796875q1.265625 -1.34375 3.265625 -1.34375q1.9375 0 3.15625 1.328125q1.234375 1.3125 1.234375 3.703125q0 0.15625 0 0.4375l-7.21875 0q0.09375 1.59375 0.90625 2.453125q0.8125 0.84375 2.015625 0.84375q0.90625 0 1.546875 -0.46875q0.640625 -0.484375 1.015625 -1.515625zm-5.390625 -2.65625l5.40625 0q-0.109375 -1.21875 -0.625 -1.828125q-0.78125 -0.953125 -2.03125 -0.953125q-1.125 0 -1.90625 0.765625q-0.765625 0.75 -0.84375 2.015625zm14.715271 5.765625l0 -8.40625l-1.453125 0l0 -1.265625l1.453125 0l0 -1.03125q0 -0.96875 0.171875 -1.453125q0.234375 -0.640625 0.828125 -1.03125q0.59375 -0.390625 1.671875 -0.390625q0.6875 0 1.53125 0.15625l-0.25 1.4375q-0.5 -0.09375 -0.953125 -0.09375q-0.75 0 -1.0625 0.328125q-0.3125 0.3125 -0.3125 1.1875l0 0.890625l1.890625 0l0 1.265625l-1.890625 0l0 8.40625l-1.625 0zm4.1832886 -4.84375q0 -2.6875 1.484375 -3.96875q1.25 -1.078125 3.046875 -1.078125q2.0 0 3.265625 1.3125q1.265625 1.296875 1.265625 3.609375q0 1.859375 -0.5625 2.9375q-0.5625 1.0625 -1.640625 1.65625q-1.0625 0.59375 -2.328125 0.59375q-2.03125 0 -3.28125 -1.296875q-1.25 -1.3125 -1.25 -3.765625zm1.6875 0q0 1.859375 0.796875 2.796875q0.8125 0.921875 2.046875 0.921875q1.21875 0 2.03125 -0.921875q0.8125 -0.9375 0.8125 -2.84375q0 -1.796875 -0.8125 -2.71875q-0.8125 -0.921875 -2.03125 -0.921875q-1.234375 0 -2.046875 0.921875q-0.796875 0.90625 -0.796875 2.765625zm9.281982 4.84375l0 -9.671875l1.46875 0l0 1.46875q0.5625 -1.03125 1.03125 -1.359375q0.484375 -0.328125 1.0625 -0.328125q0.828125 0 1.6875 0.53125l-0.5625 1.515625q-0.609375 -0.359375 -1.203125 -0.359375q-0.546875 0 -0.96875 0.328125q-0.421875 0.328125 -0.609375 0.890625q-0.28125 0.875 -0.28125 1.921875l0 5.0625l-1.625 0zm6.228302 0l0 -9.671875l1.46875 0l0 1.359375q0.453125 -0.71875 1.203125 -1.140625q0.765625 -0.4375 1.71875 -0.4375q1.078125 0 1.765625 0.453125q0.6875 0.4375 0.96875 1.234375q1.15625 -1.6875 2.984375 -1.6875q1.453125 0 2.21875 0.796875q0.78125 0.796875 0.78125 2.453125l0 6.640625l-1.640625 0l0 -6.09375q0 -0.984375 -0.15625 -1.40625q-0.15625 -0.4375 -0.578125 -0.703125q-0.421875 -0.265625 -0.984375 -0.265625q-1.015625 0 -1.6875 0.6875q-0.671875 0.671875 -0.671875 2.15625l0 5.625l-1.640625 0l0 -6.28125q0 -1.09375 -0.40625 -1.640625q-0.40625 -0.546875 -1.3125 -0.546875q-0.6875 0 -1.28125 0.359375q-0.59375 0.359375 -0.859375 1.0625q-0.25 0.703125 -0.25 2.03125l0 5.015625l-1.640625 0zm21.868927 0l0 -1.421875q-1.125 1.640625 -3.0625 1.640625q-0.859375 0 -1.609375 -0.328125q-0.734375 -0.328125 -1.09375 -0.828125q-0.359375 -0.5 -0.5 -1.21875q-0.109375 -0.46875 -0.109375 -1.53125l0 -5.984375l1.640625 0l0 5.359375q0 1.28125 0.109375 1.734375q0.15625 0.640625 0.65625 1.015625q0.5 0.375 1.234375 0.375q0.734375 0 1.375 -0.375q0.65625 -0.390625 0.921875 -1.03125q0.265625 -0.65625 0.265625 -1.890625l0 -5.1875l1.640625 0l0 9.671875l-1.46875 0zm4.000702 0l0 -13.359375l1.640625 0l0 13.359375l-1.640625 0zm10.504211 -1.1875q-0.921875 0.765625 -1.765625 1.09375q-0.828125 0.3125 -1.796875 0.3125q-1.59375 0 -2.453125 -0.78125q-0.859375 -0.78125 -0.859375 -1.984375q0 -0.71875 0.328125 -1.296875q0.328125 -0.59375 0.84375 -0.9375q0.53125 -0.359375 1.1875 -0.546875q0.46875 -0.125 1.453125 -0.25q1.984375 -0.234375 2.921875 -0.5625q0.015625 -0.34375 0.015625 -0.421875q0 -1.0 -0.46875 -1.421875q-0.625 -0.546875 -1.875 -0.546875q-1.15625 0 -1.703125 0.40625q-0.546875 0.40625 -0.8125 1.421875l-1.609375 -0.21875q0.21875 -1.015625 0.71875 -1.640625q0.5 -0.640625 1.453125 -0.984375q0.953125 -0.34375 2.1875 -0.34375q1.25 0 2.015625 0.296875q0.78125 0.28125 1.140625 0.734375q0.375 0.4375 0.515625 1.109375q0.078125 0.421875 0.078125 1.515625l0 2.1875q0 2.28125 0.109375 2.890625q0.109375 0.59375 0.40625 1.15625l-1.703125 0q-0.265625 -0.515625 -0.328125 -1.1875zm-0.140625 -3.671875q-0.890625 0.375 -2.671875 0.625q-1.015625 0.140625 -1.4375 0.328125q-0.421875 0.1875 -0.65625 0.53125q-0.21875 0.34375 -0.21875 0.78125q0 0.65625 0.5 1.09375q0.5 0.4375 1.453125 0.4375q0.9375 0 1.671875 -0.40625q0.75 -0.421875 1.09375 -1.140625q0.265625 -0.5625 0.265625 -1.640625l0 -0.609375z" fill-rule="nonzero"/><path fill="#000000" fill-opacity="0.0" d="m377.92914 96.931755l113.76376 0l0 46.04725l-113.76376 0z" fill-rule="evenodd"/><path stroke="#000000" stroke-width="3.0" stroke-linejoin="round" stroke-linecap="butt" d="m377.92914 96.931755l113.76376 0l0 46.04725l-113.76376 0z" fill-rule="evenodd"/><path fill="#000000" d="m393.21887 124.64863l1.59375 0.234375q0.109375 0.75 0.5625 1.078125q0.609375 0.453125 1.671875 0.453125q1.140625 0 1.75 -0.453125q0.625 -0.453125 0.84375 -1.265625q0.125 -0.5 0.109375 -2.109375q-1.0625 1.265625 -2.671875 1.265625q-2.0 0 -3.09375 -1.4375q-1.09375 -1.4375 -1.09375 -3.453125q0 -1.390625 0.5 -2.5625q0.515625 -1.171875 1.453125 -1.796875q0.953125 -0.640625 2.25 -0.640625q1.703125 0 2.8125 1.375l0 -1.15625l1.515625 0l0 8.359375q0 2.265625 -0.46875 3.203125q-0.453125 0.9375 -1.453125 1.484375q-0.984375 0.546875 -2.453125 0.546875q-1.71875 0 -2.796875 -0.78125q-1.0625 -0.765625 -1.03125 -2.34375zm1.359375 -5.8125q0 1.90625 0.75 2.78125q0.765625 0.875 1.90625 0.875q1.125 0 1.890625 -0.859375q0.765625 -0.875 0.765625 -2.734375q0 -1.78125 -0.796875 -2.671875q-0.78125 -0.90625 -1.890625 -0.90625q-1.09375 0 -1.859375 0.890625q-0.765625 0.875 -0.765625 2.625zm15.953857 1.90625l1.6875 0.203125q-0.40625 1.484375 -1.484375 2.3125q-1.078125 0.8125 -2.765625 0.8125q-2.125 0 -3.375 -1.296875q-1.234375 -1.3125 -1.234375 -3.671875q0 -2.453125 1.25 -3.796875q1.265625 -1.34375 3.265625 -1.34375q1.9375 0 3.15625 1.328125q1.234375 1.3125 1.234375 3.703125q0 0.15625 0 0.4375l-7.21875 0q0.09375 1.59375 0.90625 2.453125q0.8125 0.84375 2.015625 0.84375q0.90625 0 1.546875 -0.46875q0.640625 -0.484375 1.015625 -1.515625zm-5.390625 -2.65625l5.40625 0q-0.109375 -1.21875 -0.625 -1.828125q-0.78125 -0.953125 -2.03125 -0.953125q-1.125 0 -1.90625 0.765625q-0.765625 0.75 -0.84375 2.015625zm12.719452 4.296875l0.234375 1.453125q-0.6875 0.140625 -1.234375 0.140625q-0.890625 0 -1.390625 -0.28125q-0.484375 -0.28125 -0.6875 -0.734375q-0.203125 -0.46875 -0.203125 -1.9375l0 -5.578125l-1.203125 0l0 -1.265625l1.203125 0l0 -2.390625l1.625 -0.984375l0 3.375l1.65625 0l0 1.265625l-1.65625 0l0 5.671875q0 0.6875 0.078125 0.890625q0.09375 0.203125 0.28125 0.328125q0.203125 0.109375 0.578125 0.109375q0.265625 0 0.71875 -0.0625zm4.136444 1.46875l-3.53125 -13.359375l1.8125 0l2.03125 8.765625q0.328125 1.375 0.5625 2.71875q0.5 -2.140625 0.59375 -2.46875l2.546875 -9.015625l2.125 0l1.921875 6.765625q0.71875 2.515625 1.03125 4.71875q0.265625 -1.265625 0.671875 -2.890625l2.09375 -8.59375l1.78125 0l-3.671875 13.359375l-1.703125 0l-2.8125 -10.171875q-0.359375 -1.28125 -0.421875 -1.5625q-0.203125 0.90625 -0.390625 1.5625l-2.828125 10.171875l-1.8125 0zm15.077393 -11.46875l0 -1.890625l1.640625 0l0 1.890625l-1.640625 0zm0 11.46875l0 -9.671875l1.640625 0l0 9.671875l-1.640625 0zm4.1448364 0l0 -9.671875l1.46875 0l0 1.375q1.0625 -1.59375 3.078125 -1.59375q0.875 0 1.609375 0.3125q0.734375 0.3125 1.09375 0.828125q0.375 0.5 0.515625 1.203125q0.09375 0.453125 0.09375 1.59375l0 5.953125l-1.640625 0l0 -5.890625q0 -1.0 -0.203125 -1.484375q-0.1875 -0.5 -0.671875 -0.796875q-0.484375 -0.296875 -1.140625 -0.296875q-1.046875 0 -1.8125 0.671875q-0.75 0.65625 -0.75 2.515625l0 5.28125l-1.640625 0zm10.375702 0l0 -9.671875l1.46875 0l0 1.375q1.0625 -1.59375 3.078125 -1.59375q0.875 0 1.609375 0.3125q0.734375 0.3125 1.09375 0.828125q0.375 0.5 0.515625 1.203125q0.09375 0.453125 0.09375 1.59375l0 5.953125l-1.640625 0l0 -5.890625q0 -1.0 -0.203125 -1.484375q-0.1875 -0.5 -0.671875 -0.796875q-0.484375 -0.296875 -1.140625 -0.296875q-1.046875 0 -1.8125 0.671875q-0.75 0.65625 -0.75 2.515625l0 5.28125l-1.640625 0zm17.000732 -3.109375l1.6875 0.203125q-0.40625 1.484375 -1.484375 2.3125q-1.078125 0.8125 -2.765625 0.8125q-2.125 0 -3.375 -1.296875q-1.234375 -1.3125 -1.234375 -3.671875q0 -2.453125 1.25 -3.796875q1.265625 -1.34375 3.265625 -1.34375q1.9375 0 3.15625 1.328125q1.234375 1.3125 1.234375 3.703125q0 0.15625 0 0.4375l-7.21875 0q0.09375 1.59375 0.90625 2.453125q0.8125 0.84375 2.015625 0.84375q0.90625 0 1.546875 -0.46875q0.640625 -0.484375 1.015625 -1.515625zm-5.390625 -2.65625l5.40625 0q-0.109375 -1.21875 -0.625 -1.828125q-0.78125 -0.953125 -2.03125 -0.953125q-1.125 0 -1.90625 0.765625q-0.765625 0.75 -0.84375 2.015625zm9.125702 5.765625l0 -9.671875l1.46875 0l0 1.46875q0.5625 -1.03125 1.03125 -1.359375q0.484375 -0.328125 1.0625 -0.328125q0.828125 0 1.6875 0.53125l-0.5625 1.515625q-0.609375 -0.359375 -1.203125 -0.359375q-0.546875 0 -0.96875 0.328125q-0.421875 0.328125 -0.609375 0.890625q-0.28125 0.875 -0.28125 1.921875l0 5.0625l-1.625 0z" fill-rule="nonzero"/><path fill="#000000" fill-opacity="0.0" d="m434.8084 225.9252l113.763794 0l0 26.929123l-113.763794 0z" fill-rule="evenodd"/><path fill="#000000" d="m445.2303 252.8452l0 -13.359375l1.8125 0l7.015625 10.484375l0 -10.484375l1.6875 0l0 13.359375l-1.8125 0l-7.015625 -10.5l0 10.5l-1.6875 0zm12.676056 -4.84375q0 -2.6875 1.484375 -3.96875q1.25 -1.078125 3.046875 -1.078125q2.0 0 3.265625 1.3125q1.265625 1.296875 1.265625 3.609375q0 1.859375 -0.5625 2.9375q-0.5625 1.0625 -1.640625 1.65625q-1.0625 0.59375 -2.328125 0.59375q-2.03125 0 -3.28125 -1.296875q-1.25 -1.3125 -1.25 -3.765625zm1.6875 0q0 1.859375 0.796875 2.796875q0.8125 0.921875 2.046875 0.921875q1.21875 0 2.03125 -0.921875q0.8125 -0.9375 0.8125 -2.84375q0 -1.796875 -0.8125 -2.71875q-0.8125 -0.921875 -2.03125 -0.921875q-1.234375 0 -2.046875 0.921875q-0.796875 0.90625 -0.796875 2.765625z" fill-rule="nonzero"/><path fill="#000000" fill-opacity="0.0" d="m299.6299 119.86089l78.299225 0.09449005" fill-rule="evenodd"/><path stroke="#000000" stroke-width="1.0" stroke-linejoin="round" stroke-linecap="butt" d="m299.6299 119.86089l72.299225 0.087249756" fill-rule="evenodd"/><path fill="#000000" stroke="#000000" stroke-width="1.0" stroke-linecap="butt" d="m371.92715 121.59987l4.5400696 -1.6462555l-4.5361023 -1.6572037z" fill-rule="evenodd"/><path fill="#000000" fill-opacity="0.0" d="m586.8924 627.19946l142.67719 0l0 -380.28345" fill-rule="evenodd"/><path stroke="#000000" stroke-width="1.0" stroke-linejoin="round" stroke-linecap="butt" d="m586.8924 627.19946l142.67719 0l0 -374.28345" fill-rule="evenodd"/><path fill="#000000" stroke="#000000" stroke-width="1.0" stroke-linecap="butt" d="m731.2213 252.91602l-1.6517334 -4.538101l-1.6517334 4.538101z" fill-rule="evenodd"/><path fill="#000000" fill-opacity="0.0" d="m662.48816 206.80315l0 0c0 -22.152267 30.028687 -40.11023 67.07092 -40.11023l0 0c37.042175 0 67.07086 17.957962 67.07086 40.11023l0 0c0 22.152267 -30.028687 40.110245 -67.07086 40.110245l0 0c-37.042236 0 -67.07092 -17.957977 -67.07092 -40.110245z" fill-rule="evenodd"/><path stroke="#38761d" stroke-width="4.0" stroke-linejoin="round" stroke-linecap="butt" d="m662.48816 206.80315l0 0c0 -22.152267 30.028687 -40.11023 67.07092 -40.11023l0 0c37.042175 0 67.07086 17.957962 67.07086 40.11023l0 0c0 22.152267 -30.028687 40.110245 -67.07086 40.110245l0 0c-37.042236 0 -67.07092 -17.957977 -67.07092 -40.110245z" fill-rule="evenodd"/></g></svg>