<?xml version="1.0" encoding="utf-8"?>
<!-- Generator: Adobe Illustrator 23.0.1, SVG Export Plug-In . SVG Version: 6.00 Build 0)  -->
<svg xmlns="http://www.w3.org/2000/svg" version="1.1" viewBox="0 0 1000 120">
    <g class="board winner" transform="translate(116.66666666666666,10)">
        <rect x="0" y="0" width="100" height="100" class="winner-X"></rect>
        <g class="elements">
            <rect x="3.333333333333334" y="3.333333333333334" width="26.666666666666668" height="26.666666666666668" class="solution-unKnoned false"></rect>
            <rect x="36.666666666666664" y="3.333333333333334" width="26.666666666666668" height="26.666666666666668" class="solution-unKnoned false"></rect>
            <g class="X">
                <line x1="70.00000000000001" y1="3.333333333333334" x2="96.66666666666667" y2="30"></line>
                <line x1="96.66666666666667" y1="3.333333333333334" x2="70.00000000000001" y2="30"></line>
            </g>
            <g class="O">
                <circle r="13.333333333333334" cx="16.666666666666668" cy="50"></circle>
            </g>
            <g class="O">
                <circle r="13.333333333333334" cx="50" cy="50"></circle>
            </g>
            <g class="X">
                <line x1="70.00000000000001" y1="36.666666666666664" x2="96.66666666666667" y2="63.333333333333336"></line>
                <line x1="96.66666666666667" y1="36.666666666666664" x2="70.00000000000001" y2="63.333333333333336"></line>
            </g>
            <g class="X">
                <line x1="3.333333333333334" y1="70.00000000000001" x2="30" y2="96.66666666666667"></line>
                <line x1="30" y1="70.00000000000001" x2="3.333333333333334" y2="96.66666666666667"></line>
            </g>
            <g class="O">
                <circle r="13.333333333333334" cx="50" cy="83.33333333333334"></circle>
            </g>
            <g class="X">
                <line x1="70.00000000000001" y1="70.00000000000001" x2="96.66666666666667" y2="96.66666666666667"></line>
                <line x1="96.66666666666667" y1="70.00000000000001" x2="70.00000000000001" y2="96.66666666666667"></line>
            </g>
        </g>
        <g class="grid">
            <line x1="33.333333333333336" y1="0" x2="33.333333333333336" y2="100"></line>
            <line x1="66.66666666666667" y1="0" x2="66.66666666666667" y2="100"></line>
            <line x1="0" y1="33.333333333333336" x2="100" y2="33.333333333333336"></line>
            <line x1="0" y1="66.66666666666667" x2="100" y2="66.66666666666667"></line>
        </g>
        <line x1="83.33333333333334" y1="83.33333333333334" x2="83.33333333333334" y2="16.666666666666668" class="winning-line"></line>
    </g>
    <g class="board winner" transform="translate(450,10)">
        <rect x="0" y="0" width="100" height="100" class="winner-O"></rect>
        <g class="elements">
            <rect x="3.333333333333334" y="3.333333333333334" width="26.666666666666668" height="26.666666666666668" class="solution-unKnoned false"></rect>
            <g class="X">
                <line x1="36.666666666666664" y1="3.333333333333334" x2="63.333333333333336" y2="30"></line>
                <line x1="63.333333333333336" y1="3.333333333333334" x2="36.666666666666664" y2="30"></line>
            </g>
            <g class="O">
                <circle r="13.333333333333334" cx="83.33333333333334" cy="16.666666666666668"></circle>
            </g>
            <g class="X">
                <line x1="3.333333333333334" y1="36.666666666666664" x2="30" y2="63.333333333333336"></line>
                <line x1="30" y1="36.666666666666664" x2="3.333333333333334" y2="63.333333333333336"></line>
            </g>
            <g class="O">
                <circle r="13.333333333333334" cx="50" cy="50"></circle>
            </g>
            <g class="O">
                <circle r="13.333333333333334" cx="83.33333333333334" cy="50"></circle>
            </g>
            <g class="O">
                <circle r="13.333333333333334" cx="16.666666666666668" cy="83.33333333333334"></circle>
            </g>
            <g class="X">
                <line x1="36.666666666666664" y1="70.00000000000001" x2="63.333333333333336" y2="96.66666666666667"></line>
                <line x1="63.333333333333336" y1="70.00000000000001" x2="36.666666666666664" y2="96.66666666666667"></line>
            </g>
            <g class="X">
                <line x1="70.00000000000001" y1="70.00000000000001" x2="96.66666666666667" y2="96.66666666666667"></line>
                <line x1="96.66666666666667" y1="70.00000000000001" x2="70.00000000000001" y2="96.66666666666667"></line>
            </g>
        </g>
        <g class="grid">
            <line x1="33.333333333333336" y1="0" x2="33.333333333333336" y2="100"></line>
            <line x1="66.66666666666667" y1="0" x2="66.66666666666667" y2="100"></line>
            <line x1="0" y1="33.333333333333336" x2="100" y2="33.333333333333336"></line>
            <line x1="0" y1="66.66666666666667" x2="100" y2="66.66666666666667"></line>
        </g>
        <line x1="16.666666666666668" y1="83.33333333333334" x2="83.33333333333334" y2="16.666666666666668" class="winning-line"></line>
    </g>
    <g class="board winner" transform="translate(783.3333333333333,10)">
        <rect x="0" y="0" width="100" height="100" class="winner-null"></rect>
        <g class="elements">
            <g class="X">
                <line x1="3.333333333333334" y1="3.333333333333334" x2="30" y2="30"></line>
                <line x1="30" y1="3.333333333333334" x2="3.333333333333334" y2="30"></line>
            </g>
            <g class="O">
                <circle r="13.333333333333334" cx="50" cy="16.666666666666668"></circle>
            </g>
            <g class="X">
                <line x1="70.00000000000001" y1="3.333333333333334" x2="96.66666666666667" y2="30"></line>
                <line x1="96.66666666666667" y1="3.333333333333334" x2="70.00000000000001" y2="30"></line>
            </g>
            <g class="O">
                <circle r="13.333333333333334" cx="16.666666666666668" cy="50"></circle>
            </g>
            <g class="O">
                <circle r="13.333333333333334" cx="50" cy="50"></circle>
            </g>
            <g class="X">
                <line x1="70.00000000000001" y1="36.666666666666664" x2="96.66666666666667" y2="63.333333333333336"></line>
                <line x1="96.66666666666667" y1="36.666666666666664" x2="70.00000000000001" y2="63.333333333333336"></line>
            </g>
            <g class="X">
                <line x1="3.333333333333334" y1="70.00000000000001" x2="30" y2="96.66666666666667"></line>
                <line x1="30" y1="70.00000000000001" x2="3.333333333333334" y2="96.66666666666667"></line>
            </g>
            <g class="X">
                <line x1="36.666666666666664" y1="70.00000000000001" x2="63.333333333333336" y2="96.66666666666667"></line>
                <line x1="63.333333333333336" y1="70.00000000000001" x2="36.666666666666664" y2="96.66666666666667"></line>
            </g>
            <g class="O">
                <circle r="13.333333333333334" cx="83.33333333333334" cy="83.33333333333334"></circle>
            </g>
        </g>
        <g class="grid">
            <line x1="33.333333333333336" y1="0" x2="33.333333333333336" y2="100"></line>
            <line x1="66.66666666666667" y1="0" x2="66.66666666666667" y2="100"></line>
            <line x1="0" y1="33.333333333333336" x2="100" y2="33.333333333333336"></line>
            <line x1="0" y1="66.66666666666667" x2="100" y2="66.66666666666667"></line>
        </g>
    </g>

    <style type="text/css"><![CDATA[
    
.X {
  stroke: var(--blue-500);
}

.O {
  stroke: var(--red-500);
  fill: none;
}

.elements {
  stroke-width: 2;
}
.grid {
  stroke-width: 2;
  stroke: var(--gray-500);
}

.board:hover .X {
  stroke: var(--blue-900);
}
.board:hover .O {
  stroke: var(--red-900);
}

.winner {
  stroke: none;
  fill: white;
}

.winning-line {
  stroke: gray;
  stroke-width: 6;
}

.winner-X {
  fill: white;
  outline-color: var(--blue-500);
  outline-style: solid;
  outline-width: 3;
}
.winner-O {
  fill: white;
  outline-color: var(--red-500);
  outline-style: solid;
  outline-width: 3;
}
.winner-null {
  fill: white;
  stroke-width: 2;
  outline-color: var(--orange-500);
  outline-style: solid;
  outline-width: 3;
}

.winner {
  stroke: none;
  fill: white;
}

:root {
  --gray-500: #9e9e9e;
  --orange-500: #ff9800;
  --red-500: #f44336;
  --blue-500: #2196f3;
  --gray-700: #616161;
  --orange-700: #f57c00;

  --red-700: #d32f2f;
  --blue-700: #1976d2;
  --red-900: #bf360c;
  --blue-900: #0d47a1;
}

    ]]>    </style>
</svg>